<?xml version="1.0" encoding="UTF-8" standalone="no"?>
<svg
   xmlns:dc="http://purl.org/dc/elements/1.1/"
   xmlns:cc="http://creativecommons.org/ns#"
   xmlns:rdf="http://www.w3.org/1999/02/22-rdf-syntax-ns#"
   xmlns:svg="http://www.w3.org/2000/svg"
   xmlns="http://www.w3.org/2000/svg"
   xmlns:sodipodi="http://sodipodi.sourceforge.net/DTD/sodipodi-0.dtd"
   xmlns:inkscape="http://www.inkscape.org/namespaces/inkscape"
   width="900"
   height="600"
   viewBox="0 0 9 6"
   version="1.1"
   id="svg2"
   sodipodi:version="0.32"
   inkscape:version="0.46"
   sodipodi:docname="Flag_of_Garagoa.svg"
   inkscape:output_extension="org.inkscape.output.svg.inkscape">
  <metadata
     id="metadata12">
    <rdf:RDF>
      <cc:Work
         rdf:about="">
        <dc:format>image/svg+xml</dc:format>
        <dc:type
           rdf:resource="http://purl.org/dc/dcmitype/StillImage" />
      </cc:Work>
    </rdf:RDF>
  </metadata>
  <defs
     id="defs10"><inkscape:perspective
   sodipodi:type="inkscape:persp3d"
   inkscape:vp_x="0 : 300 : 1"
   inkscape:vp_y="0 : 1000 : 0"
   inkscape:vp_z="900 : 300 : 1"
   inkscape:persp3d-origin="450 : 200 : 1"
   id="perspective14" />

 <style
   id="style6"
   type="text/css">
   
    .str1 {stroke:black;stroke-width:0.25;stroke-linejoin:round}
    .str0 {stroke:black;stroke-width:0.4;stroke-linejoin:round}
    .str2 {stroke:black;stroke-width:1.1;stroke-linecap:round;stroke-linejoin:round}
    .fil5 {fill:none}
    .fil4 {fill:#008F4C}
    .fil3 {fill:#704D25}
    .fil0 {fill:#E3E4E5}
    .fil1 {fill:#EAC102}
    .fil6 {fill:black;fill-rule:nonzero}
    .fil2 {fill:#704D25;fill-rule:nonzero}
   
  </style>

  <inkscape:perspective
   id="perspective2764"
   inkscape:persp3d-origin="238.64172 : 193.11023 : 1"
   inkscape:vp_z="477.28345 : 289.66534 : 1"
   inkscape:vp_y="0 : 1000 : 0"
   inkscape:vp_x="0 : 289.66534 : 1"
   sodipodi:type="inkscape:persp3d" />
</defs>
  <sodipodi:namedview
     inkscape:window-height="710"
     inkscape:window-width="1024"
     inkscape:pageshadow="2"
     inkscape:pageopacity="0.0"
     guidetolerance="10.0"
     gridtolerance="10.0"
     objecttolerance="10.0"
     borderopacity="1.0"
     bordercolor="#666666"
     pagecolor="#ffffff"
     id="base"
     showgrid="false"
     inkscape:zoom="0.84166667"
     inkscape:cx="450"
     inkscape:cy="317.21892"
     inkscape:window-x="-4"
     inkscape:window-y="-4"
     inkscape:current-layer="svg2" />
  <desc
     id="desc4">Flag of the Netherlands</desc>
  <rect
     width="9"
     height="6"
     id="blue"
     style="fill:#ce1c00;fill-opacity:1"
     x="0"
     y="-6"
     transform="scale(1,-1)" />
  <rect
     width="9"
     height="4"
     id="white"
     x="0"
     y="-6"
     transform="scale(1,-1)"
     style="fill:#ffffff" />
  <rect
     width="9"
     height="2"
     id="red"
     style="fill:#2146b4;fill-opacity:1"
     x="0"
     y="-6"
     transform="scale(1,-1)" />
  <g
     style="fill-rule:evenodd"
     id="g2768"
     transform="matrix(1.7436157e-2,0,0,1.7405112e-2,3.3394598,1.6710473)">
    <g
       id="fondo">
  <metadata
   id="CorelCorpID_0Corel-Layer" />

  <path
   id="path10"
   d="M 1.2543,1.3622 L 1.2543,138.9862 C 1.2543,145.5844 7.5056,150.8766 15.2968,150.8766 L 53.2437,150.8766 C 61.0357,150.8766 67.3488,156.1716 67.3488,162.7674 C 67.3488,156.1692 73.6618,150.8766 81.4538,150.8766 L 119.4008,150.8766 C 127.1927,150.8766 133.4432,145.5844 133.4432,138.9862 L 133.4432,1.3622 L 67.3479,1.3622 L 1.2543,1.3622 L 1.2543,1.3622 z"
   class="fil0"
   style="fill:#e3e4e5" />

 </g>
    <g
       id="bordura">
  <metadata
   id="CorelCorpID_1Corel-Layer" />

  <path
   id="path14"
   d="M 111.426,23.4124 L 111.4143,118.8328 L 111.3858,119.6008 L 111.3013,120.3555 L 111.1846,120.9936 L 111.0142,121.6686 L 110.792,122.3452 L 110.5431,122.9584 L 110.2525,123.5576 L 109.9289,124.1259 L 109.5597,124.6853 L 109.0672,125.3237 L 108.5415,125.9035 L 108.0043,126.4121 L 107.5258,126.8066 L 106.9705,127.2058 L 106.3828,127.5687 L 105.7419,127.9029 L 105.0996,128.1799 L 104.4287,128.4126 L 103.816,128.578 L 103.1183,128.7148 L 102.5612,128.7861 L 102.0694,128.8219 L 101.6723,128.8326 L 74.0531,128.8326 L 73.7798,128.8387 L 73.4413,128.8579 L 73.0578,128.896 L 72.5776,128.9696 L 72.156,129.059 L 71.6943,129.1847 L 71.2521,129.3342 L 70.8109,129.5145 L 70.4066,129.7104 L 70.0244,129.9256 L 69.6951,130.1385 L 69.3254,130.4128 L 68.9635,130.7259 L 68.6246,131.0704 L 68.3705,131.3718 L 68.1479,131.6787 L 67.9477,132.0019 L 67.7764,132.3325 L 67.6236,132.6976 L 67.5062,133.0618 L 67.426,133.4063 L 67.368,133.813 L 67.3483,134.2276 L 67.3287,133.813 L 67.2704,133.4063 L 67.1902,133.0618 L 67.0729,132.6976 L 66.92,132.3325 L 66.7488,132.0019 L 66.5486,131.6787 L 66.326,131.3718 L 66.0717,131.0704 L 65.7329,130.7259 L 65.371,130.4128 L 65.0012,130.1385 L 64.6721,129.9256 L 64.2898,129.7104 L 63.8853,129.5145 L 63.4443,129.3342 L 63.0022,129.1847 L 62.5403,129.059 L 62.1189,128.9696 L 61.6385,128.896 L 61.2552,128.8579 L 60.9167,128.8387 L 60.6434,128.8326 L 33.0026,128.8326 L 32.6055,128.8219 L 32.1137,128.7861 L 31.5566,128.7148 L 30.8589,128.578 L 30.2462,128.4126 L 29.5753,128.1799 L 28.933,127.9029 L 28.2921,127.5687 L 27.7044,127.2058 L 27.1491,126.8066 L 26.6706,126.4121 L 26.1334,125.9035 L 25.6077,125.3237 L 25.1152,124.6853 L 24.746,124.1259 L 24.4224,123.5576 L 24.1318,122.9584 L 23.8829,122.3452 L 23.6607,121.6686 L 23.4903,120.9936 L 23.3736,120.3555 L 23.2891,119.6008 L 23.2606,118.8328 L 23.2723,23.4124 L 111.426,23.4124 L 111.426,23.4124 z M 1.255,1.3622 L 1.255,138.9862 C 1.255,145.5844 7.5063,150.8766 15.2975,150.8766 L 53.2444,150.8766 C 61.0364,150.8766 67.3495,156.1716 67.3495,162.7674 C 67.3495,156.1692 73.6625,150.8766 81.4545,150.8766 L 119.4015,150.8766 C 127.1934,150.8766 133.4439,145.5844 133.4439,138.9862 L 133.4439,1.3622 L 67.3486,1.3622 L 1.255,1.3622 L 1.255,1.3622 z"
   class="fil1 str0"
   style="fill:#eac102;stroke:#000000;stroke-width:0.40000001;stroke-linejoin:round" />

 </g>
    <g
       id="elementos">
  <metadata
   id="CorelCorpID_2Corel-Layer" />

  <g
   id="_55239640">
   <path
   nodetypes="cssssssssssssssssscccsssccscsssccsscsssssssscsssscssssssssssssssssssssssssssssssssssssssssssssssssssssssssssccscsccccssssssccccscccccsssccssssssccssssssscssccsssccsssscsssssss"
   d="M 59.4167,94.1639 C 60.2488,95.874 60.5642,97.2208 60.8617,98.7817 C 60.9938,99.8917 61.3398,100.8503 60.8413,102.5771 C 60.4061,102.8467 60.6256,103.8647 60.0199,104.3585 C 59.7206,104.6026 59.4229,104.4351 59.055,104.3351 C 58.6871,104.2351 59.1203,103.9778 58.5482,103.9586 C 57.9761,103.9394 57.58,103.9836 56.7667,104.2585 C 55.9533,104.5334 55.2949,105.0582 55.2949,105.0582 L 53.0832,106.6355 L 55.2299,106.0025 C 55.2299,106.0025 55.8306,105.8022 56.3019,105.4986 C 57.7137,104.5892 56.8054,105.4831 57.0765,105.7579 C 57.3477,106.0329 58.0907,107.4214 58.3424,107.9212 C 58.5942,108.4211 58.7298,108.7709 59.0396,108.621 C 58.5607,106.1268 57.8483,106.1596 57.8853,105.2896 C 58.5013,105.7184 59.7762,106.0788 60.5451,105.7078 C 61.3141,105.3367 62.6284,104.4154 63.0355,104.1849 C 62.7734,104.6329 62.0921,105.1824 61.5175,105.6918 C 60.943,106.2011 60.475,106.6702 60.6396,106.9577 C 60.7219,107.1013 60.3177,107.769 60.3958,107.864 C 60.4738,107.9589 60.4128,107.3885 59.2452,109.5286 C 60.8024,108.5841 61.1098,107.759 61.6142,106.8204 C 62.3337,107.5165 62.8199,107.8524 63.0378,107.9648 C 63.9092,108.4147 62.9054,108.6071 64.1254,108.7571 C 65.3454,108.9071 66.8365,108.9071 66.914,108.6572 C 66.9914,108.4072 65.5197,108.2073 64.4353,107.7574 C 63.3508,107.3076 63.041,107.3576 62.5762,106.8577 C 62.1115,106.3578 62.3051,106.1829 62.5762,105.7581 C 62.8474,105.3332 63.099,105.1083 63.6607,105.1582 C 64.2222,105.2082 64.3578,105.558 64.8226,105.958 C 65.2874,106.3578 65.3842,106.3578 65.5197,106.7577 C 65.6553,107.1576 66.6349,107.751 65.3648,107.5575 C 62.6619,107.146 65.8296,107.8075 66.3718,107.9574 C 66.914,108.1073 67.4369,108.2572 67.5337,108.1573 C 67.6306,108.0573 66.9916,107.9073 66.7591,107.5574 C 66.5267,107.2075 66.488,107.0326 66.6042,106.7576 C 66.7204,106.4827 66.9334,106.3328 67.2239,106.4578 C 67.5144,106.5827 67.6112,106.9326 67.766,107.2575 C 67.921,107.5824 67.7079,107.8074 67.8435,107.7574 C 67.9791,107.7074 70.7746,109.2583 68.3082,107.0576 C 68.0847,106.8581 67.8821,106.6578 67.9209,106.3578 C 67.9596,106.0579 68.1145,106.0579 68.463,105.8579 C 68.8117,105.658 68.9859,105.508 69.3151,105.558 C 69.6443,105.6081 69.6831,105.708 69.7798,106.0579 C 69.8766,106.4078 69.6249,106.5078 69.7023,106.9577 C 69.7798,107.4075 70.4503,107.5824 70.0897,107.8574 C 67.1877,110.0697 70.8062,108.1573 71.0967,108.1573 C 71.3872,108.1573 71.3097,108.0573 71.2516,107.8574 C 71.1935,107.6575 70.5401,107.5028 70.8643,107.3575 C 72.2254,106.7475 69.2338,106.3948 70.8643,106.1579 C 71.3925,106.0811 70.1865,105.583 70.1672,105.3581 C 70.1478,105.1332 70.1865,105.0332 70.7868,105.2582 C 71.3871,105.4831 71.91,105.7581 72.5684,106.2578 C 73.2268,106.7577 72.5684,106.5577 73.4204,107.2575 C 74.2725,107.9574 75.0084,108.6571 75.9766,109.057 C 76.9449,109.4568 76.8287,108.8571 77.2935,108.8571 C 77.7582,108.8571 79.9465,108.807 80.1595,108.5572 C 80.3726,108.3073 78.9589,107.9824 78.1455,107.8574 C 77.3322,107.7324 77.5065,108.0323 76.9061,108.0573 C 76.3059,108.0823 76.1316,108.1823 75.7442,107.9574 C 75.3569,107.7324 75.5699,107.6074 75.3569,107.1576 C 75.1438,106.7077 74.5823,106.0579 74.892,106.1579 C 75.2019,106.2578 76.3637,106.2578 76.906,106.4578 C 77.4482,106.6577 77.3321,106.6577 78.068,106.7576 C 78.8038,106.8576 79.0362,106.8326 79.8496,106.8576 C 80.6629,106.8826 80.7791,106.8576 81.3213,106.8576 C 81.8634,106.8576 82.7156,106.5577 81.5537,106.3577 C 80.3917,106.1578 79.4622,105.7578 78.8426,105.7578 C 78.2229,105.7578 77.4096,105.7078 76.5962,105.4579 C 75.7828,105.208 76.054,105.083 75.5892,104.7581 C 75.1245,104.4332 75.2599,104.3083 74.7371,104.1583 C 74.2143,104.0083 74.04,104.4332 73.4977,104.1583 C 72.9555,103.8833 72.9943,103.3585 72.5682,103.0586 C 72.1421,102.7587 72.3939,103.9083 71.7936,102.9587 C 71.1933,102.009 71.4314,101.7355 71.0441,99.4862 C 70.9177,98.7837 70.7916,98.6147 70.7695,97.8203 C 70.8262,96.3063 70.7599,95.8975 71.3387,93.6956 C 71.6524,92.7861 73.6018,89.3693 74.4889,88.5529 C 75.6158,87.0151 77.6413,85.7558 79.5972,83.7064 C 81.5531,81.657 81.0657,80.6456 82.0727,79.4959 C 83.1007,78.3222 82.2242,77.5301 80.7846,79.0101 C 80.649,80.2328 78.5121,83.0037 77.7447,83.5043 C 77.3665,82.8589 77.1441,80.5669 77.3377,79.3422 C 77.5314,78.1176 76.7705,77.7413 76.7511,77.1665 C 76.7317,76.5916 76.8481,76.381 76.4027,77.0309 C 75.9572,77.6807 76.7089,78.1761 76.4571,79.6256 C 76.2053,81.0752 76.8075,83.5935 76.7366,84.0018 C 76.0801,85.1071 75.4178,85.321 74.3333,86.4206 C 73.5731,87.088 72.0055,88.9898 71.2368,90.0008 C 70.0426,91.3976 68.9176,94.1395 68.8982,94.0395 C 69.2001,91.6317 69.834,89.3718 70.6798,87.1962 C 71.4738,85.0218 71.7204,84.4305 72.5531,82.981 C 73.2257,81.9681 73.329,81.9944 74.1423,81.1696 C 74.9557,80.3449 74.9041,80.3223 75.5432,79.1976 C 76.1822,78.0729 76.5188,76.4665 76.5188,76.4665 L 75.2794,76.1667 C 75.2794,76.1667 75.8005,77.0914 74.8516,78.366 C 73.6029,80.4702 72.6623,80.671 72.0712,81.8421 C 72.2835,80.8573 72.0872,79.8923 72.4416,79.5193 C 74.0695,77.8057 75.8766,72.9279 75.8766,72.9279 L 74.6372,73.9276 L 73.143,77.0477 C 73.143,77.0477 71.261,78.6662 71.1038,80.9085 C 71.063,81.71 71.1532,82.3491 70.6852,83.9733 C 69.9106,85.8227 68.8528,88.2693 68.1623,90.2322 C 67.2616,93.1584 66.9277,95.1042 67.0936,91.7242 C 67.0548,90.8994 67.2234,87.7883 67.4558,86.1637 C 67.6882,84.5393 68.0948,85.8638 68.3079,85.3639 C 68.5209,84.864 67.6689,85.6389 68.3079,84.1643 C 68.9469,82.6897 69.1241,82.1274 70.5378,80.3279 C 71.4738,77.6347 71.0272,76.4562 71.3736,74.6674 C 72.3612,73.7677 73.1757,72.9854 73.1757,72.9854 L 70.3871,73.2853 C 70.3871,73.2853 71.5918,73.2136 71.1658,74.0383 C 70.7397,74.8631 70.6349,79.8044 69.2205,80.6094 C 69.0532,79.7008 68.0744,78.4237 67.193,74.6544 L 66.7463,75.2231 C 66.7463,75.2231 67.3354,78.1795 68.107,79.9787 C 68.7896,81.216 68.4762,81.5667 68.0383,82.6375 C 67.5226,83.7524 67.4285,84.1956 66.7586,84.6639 C 65.8097,84.9138 65.8613,81.4162 66.0893,79.595 C 66.373,77.3291 66.1816,75.968 66.4681,73.2093 C 66.6447,71.5095 65.7153,73.2809 65.7153,73.2809 L 65.6119,76.333 C 65.6119,76.333 65.7607,78.0557 65.3786,80.3294 C 65.1376,82.4353 65.2466,83.1391 65.5192,84.464 C 65.637,84.9518 65.8827,85.4777 65.8291,86.3634 C 65.8484,88.2628 65.2297,93.4543 64.9973,93.5044 C 64.8312,92.7699 64.6732,88.7396 64.0408,86.5807 C 63.4018,84.4063 63.2158,83.7552 63.2305,83.303 C 63.3444,79.8033 64.4347,72.3677 64.4347,72.3677 L 63.6601,72.0678 C 63.6601,72.0678 62.7813,79.3364 62.4135,81.537 C 62.282,82.3238 61.8597,82.574 61.519,81.8673 C 61.1061,81.0109 60.8576,80.6302 60.5957,78.7552 C 60.3707,77.1451 60.3981,75.4239 59.5213,74.1527 C 59.2101,73.7014 58.7826,75.0078 59.2082,75.6627 C 60.2909,77.3287 59.5933,80.5902 61.4136,82.9644 C 62.2452,84.9848 62.399,85.9491 62.6245,87.1374 C 63.0427,89.126 63.2613,98.1729 62.9708,98.4479 C 62.4091,95.7969 61.1966,93.1679 59.3755,90.7897 C 58.1625,89.2199 58.5275,89.0053 58.47,81.9647 C 58.5593,80.5788 58.7799,73.4672 58.7799,73.4672 L 57.9278,73.7671 C 57.9278,73.7671 57.9578,77.8238 57.8029,79.7733 C 57.6479,81.7228 57.591,87.2779 57.206,88.5273 C 56.8129,88.2439 55.5648,86.8977 55.5006,86.4854 C 55.3282,85.3781 55.7214,82.514 55.6227,81.533 C 55.336,79.761 55.2842,75.1292 55.2842,75.1292 L 53.7723,75.5896 C 53.7723,75.5896 54.4897,79.3183 54.6499,80.8881 C 54.3534,83.9621 54.4956,85.6909 54.4311,86.0231 C 53.7905,85.4917 52.0393,82.7885 49.1975,78.5071 C 49.1975,78.5071 47.8112,78.2002 47.9274,79 C 48.7975,80.2993 49.5335,81.5974 50.1671,82.4221 C 51.3568,84.2559 52.2641,85.4884 53.7809,87.3376 C 54.3796,88.1015 55.8645,89.3559 56.8496,90.4997 C 57.6438,91.3606 58.404,92.5011 59.4167,94.1639 L 59.4167,94.1639 z"
   class="fil2 str1"
   id="path2221"
   style="fill:#704d25;fill-rule:nonzero;stroke:#000000;stroke-width:0.25;stroke-linejoin:round" />

   <path
   nodetypes="cssssssss"
   d="M 65.6986,96.6699 C 65.6648,97.4115 65.7493,98.4585 65.5633,99.6363 C 65.3775,100.8142 65.0732,100.5524 64.9549,101.3812 C 64.8367,102.21 64.9718,102.3409 65.0902,102.9516 C 65.2085,103.5623 65.3606,103.475 65.4282,103.8241 C 65.4958,104.173 65.2254,104.3476 65.0902,104.7838 C 64.9549,105.2199 66.206,104.9798 65.7666,105.4814 C 65.3273,105.983 66.4823,106.0865 66.1443,106.2392 C 65.8062,106.3918 68.0414,104.9461 66.0873,106.7812 M 65.6986,96.6699 L 65.6986,96.6699 L 65.6986,96.6699 z"
   class="fil3 str1"
   id="path4195"
   style="fill:#704d25;stroke:#000000;stroke-width:0.25;stroke-linejoin:round" />

   <path
   nodetypes="cssss"
   d="M 67.3886,102.166 C 67.4055,102.6241 67.3718,103.1257 67.4563,103.9982 C 67.5408,104.8707 67.6137,104.6731 67.8334,105.1966 C 68.0532,105.7201 67.1936,105.3711 67.4809,105.6328 C 67.7682,105.8946 67.4594,105.9531 67.5946,106.1057 M 67.3886,102.166 L 67.3886,102.166 L 67.3886,102.166 z"
   class="fil3 str1"
   id="path4199"
   style="fill:#704d25;stroke:#000000;stroke-width:0.25;stroke-linejoin:round" />

   <path
   nodetypes="csssss"
   d="M 68.2674,97.6296 C 68.5717,98.3276 69.1969,99.3091 69.4842,100.4214 C 69.7715,101.5338 69.4166,101.2721 69.4166,102.0791 C 69.4166,102.886 69.3152,102.9951 69.4842,103.6494 C 69.6532,104.3037 69.8898,104.282 70.0926,104.6964 C 70.2954,105.1108 69.6041,105.0166 69.6547,105.1693 M 68.2674,97.6296 L 68.2674,97.6296 L 68.2674,97.6296 z"
   class="fil3 str1"
   id="path4201"
   style="fill:#704d25;stroke:#000000;stroke-width:0.25;stroke-linejoin:round" />

   <path
   nodetypes="cssss"
   d="M 69.6195,97.8914 C 69.8053,98.7202 70.1265,100.0943 70.3631,101.2067 C 70.5997,102.319 70.2279,101.7301 70.5659,102.3409 C 70.9039,102.9516 71.4278,103.9985 71.9179,104.7838 C 72.408,105.569 72.3742,105.3072 72.5263,105.4817 M 69.6195,97.8914 L 69.6195,97.8914 L 69.6195,97.8914 z"
   class="fil3 str1"
   id="path4203"
   style="fill:#704d25;stroke:#000000;stroke-width:0.25;stroke-linejoin:round" />

   <path
   nodetypes="cssss"
   d="M 75.0917,107.02 C 74.8719,106.6493 74.3328,106.3509 73.5722,105.6747 C 72.8117,104.9986 73.0503,104.6965 72.1208,104.0858 C 71.1912,103.4751 71.5784,103.2765 71.2066,102.8184 C 70.8348,102.3604 70.6166,102.4063 70.6336,102.2536 M 75.0917,107.02 L 75.0917,107.02 L 75.0917,107.02 z"
   class="fil3 str1"
   id="path4205"
   style="fill:#704d25;stroke:#000000;stroke-width:0.25;stroke-linejoin:round" />

   <path
   nodetypes="csss"
   d="M 59.8635,105.89 C 60.3029,105.3666 60.8312,105.2416 61.372,104.3474 C 61.9128,103.4531 61.541,103.4094 61.7776,102.8641 C 62.0142,102.3188 62.1832,102.3407 62.3184,102.1661 M 59.8635,105.89 L 59.8635,105.89 L 59.8635,105.89 z"
   class="fil3 str1"
   id="path4207"
   style="fill:#704d25;stroke:#000000;stroke-width:0.25;stroke-linejoin:round" />

   <path
   nodetypes="cssssss"
   d="M 64.2789,95.623 C 64.1607,96.2991 63.8227,97.019 63.8057,98.3276 C 63.7888,99.6363 64.1944,99.9198 64.2113,100.8577 C 64.2282,101.7957 64.0085,101.5557 63.8733,102.0792 C 63.738,102.6026 63.8225,102.4937 63.6705,102.9517 C 63.5184,103.4097 63.4508,103.3879 63.2649,103.9114 C 63.079,104.4348 63.0114,104.762 62.9269,105.0455 M 64.2789,95.623 L 64.2789,95.623 L 64.2789,95.623 z"
   class="fil3 str1"
   id="path4209"
   style="fill:#704d25;stroke:#000000;stroke-width:0.25;stroke-linejoin:round" />

   <path
   nodetypes="csss"
   d="M 61.6532,104.88 C 61.7208,104.5311 61.9466,104.6529 62.2509,103.9986 C 62.5551,103.3443 62.4875,103.3879 62.6565,102.9517 C 62.8255,102.5155 62.8593,102.4282 62.9269,102.2537 M 61.6532,104.88 L 61.6532,104.88 L 61.6532,104.88 z"
   class="fil3 str1"
   id="path4211"
   style="fill:#704d25;stroke:#000000;stroke-width:0.25;stroke-linejoin:round" />

   <path
   nodetypes="csss"
   d="M 58.9384,104.522 C 58.4483,104.5874 57.5526,104.5438 56.978,104.7838 C 56.4033,105.0237 56.1273,104.8985 55.8569,105.1602 C 55.5865,105.422 55.034,105.5402 54.9495,105.6056 M 58.9384,104.522 L 58.9384,104.522 L 58.9384,104.522 z"
   class="fil3 str1"
   id="path4213"
   style="fill:#704d25;stroke:#000000;stroke-width:0.25;stroke-linejoin:round" />

   <path
   nodetypes="cssssssc"
   d="M 67.321,100.334 C 67.2196,99.8978 66.8816,99.396 66.9154,98.5891 C 66.9491,97.7821 67.3041,97.6511 67.4562,97.1058 C 67.6083,96.5605 67.5914,96.735 67.5238,96.4078 C 67.4562,96.0806 67.304,96.2987 67.1858,95.7971 C 67.0675,95.2955 67.0675,94.9901 67.0505,94.4011 M 67.321,100.334 L 67.321,100.334 L 67.321,100.334 z"
   class="fil3 str1"
   id="path4219"
   style="fill:#704d25;stroke:#000000;stroke-width:0.25;stroke-linejoin:round" />

   <g
   id="g30">
    <path
   d="M 59.0112,77.8684 L 57.12,78.2964 L 56.8233,79.3132 C 55.3568,80.3799 55.6656,79.925 55.1868,79.5267 L 54.497,80.7363 C 53.8135,81.5215 54.3637,82.0162 53.7501,81.527 L 52.568,82.6474 C 52.9624,83.6119 52.145,84.2197 50.4584,83.165 L 48.7304,82.5616 C 48.7709,83.3266 47.9673,83.7034 46.1121,83.5961 L 45.8488,82.5616 C 45.4566,82.8292 45.4105,83.3689 44.5302,83.2515 L 44.0784,82.7339 C 43.6127,83.4219 42.8374,83.3537 42.1194,83.4232 L 41.8418,82.6474 C 41.1017,83.1903 40.4831,84.3851 39.232,83.5096 L 39.1097,82.8203 C 38.5959,83.2022 38.3039,83.9779 37.3108,83.5096 L 37.2075,82.4757 C 36.6787,82.7756 36.186,82.9674 35.9268,82.4757 C 35.5524,82.2637 35.1121,82.0648 35.9742,81.6135 L 35.1832,81.4412 C 35.0559,80.8813 35.9657,80.4616 37.02,80.062 C 36.3797,80.062 35.4275,81.0922 35.0989,80.062 L 36.9215,78.9417 C 35.6635,79.4984 34.3978,80.1977 33.1769,80.062 L 32.4143,79.3728 L 31.5949,79.7174 C 30.9712,80.3858 30.4135,79.8512 29.8291,79.8039 C 29.1341,79.3153 29.5412,78.8268 30.55,78.3382 C 28.7883,77.9071 30.2888,77.476 31.5815,77.0449 L 30.3055,76.9591 C 30.5939,76.5854 30.7511,76.2118 33.0887,75.8381 C 32.2963,75.7251 31.1183,75.8873 31.2054,75.1482 C 32.7275,75.2233 34.2897,75.2227 35.4862,75.9239 L 35.6937,75.0617 C 36.3606,75.1085 37.2785,74.8414 37.2568,75.751 L 37.7607,75.3199 L 38.9097,74.803 L 37.162,74.5442 L 38.6511,73.682 L 35.8906,74.3719 L 35.1376,73.5097 L 33.4837,74.4577 C 31.914,74.2419 32.6553,73.8347 32.4151,73.5097 C 31.8297,73.9042 31.1734,74.2311 29.6783,73.7684 C 29.0207,73.4812 28.7833,73.1934 31.0064,72.9062 L 29.1042,72.5616 L 30.4038,72.217 L 29.9472,71.7859 L 32.3401,71.9582 L 32.0626,71.1824 L 34.3181,70.9237 L 31.2755,70.9237 L 31.6288,70.3202 C 30.7049,70.6245 29.7841,70.8725 28.9072,70.3202 C 27.8225,69.2415 29.6478,69.5022 30.2494,69.1999 L 29.3126,68.7688 C 29.7746,68.2354 30.3589,68.0012 31.1068,68.1653 L 31.1589,67.2173 L 33.0658,67.4761 L 32.7977,66.528 L 35.4919,67.045 L 34.9083,66.0104 L 37.4697,66.0104 L 37.6535,65.5793 L 36.5423,65.407 L 37.051,64.8901 L 35.1014,65.407 C 34.0895,65.7592 34.5536,65.1173 34.6591,64.7171 C 34.0429,65.2486 33.4338,65.6494 32.8743,65.1482 L 31.7869,64.5448 C 31.5586,64.8674 31.4408,65.3168 30.5946,64.9317 C 30.4046,64.75 29.6558,64.6231 30.6277,64.3283 L 31.8153,64.0279 C 31.1953,63.7981 30.5588,63.5683 32.1733,63.338 C 33.1703,62.7971 33.2985,63.3456 33.5962,63.6826 C 34.4138,62.3982 35.1078,63.3645 35.8564,63.338 L 34.1285,62.7346 C 34.7343,61.95 35.6906,62.2744 36.5545,62.3035 L 35.4623,61.7865 C 34.5175,61.3232 35.9417,61.2557 36.3054,61.0108 L 35.6557,60.7572 C 35.1918,60.7414 36.1526,60.8984 35.4952,60.3416 C 36.6219,59.3285 36.8602,60.1192 37.9008,60.6747 L 37.1822,59.8027 C 37.4999,59.1406 38.1321,59.678 38.8483,59.8535 L 38.2172,59.0946 C 37.8139,58.7184 38.9458,59.1569 39.369,59.0641 L 38.7424,58.3612 C 39.293,58.0544 39.8595,58.4452 40.3941,58.4301 C 39.4021,58.1543 39.2102,57.9817 39.5615,57.6459 C 40.1189,57.2142 40.6936,57.2194 41.2036,57.6505 C 41.2036,57.6505 40.6229,56.7703 42.0736,56.5191 C 43.1032,56.3411 43.2076,56.8813 43.3718,57.3248 L 44.3614,57.9269 C 45.0805,57.4655 45.7366,54.4881 46.3658,55.6652 L 46.794,56.6133 L 47.458,56.1822 C 48.5728,56.2182 48.4074,56.6316 48.536,56.9579 L 49.8403,56.5268 C 49.2453,56.3911 49.0717,56.0358 48.7623,55.7511 C 49.2619,55.3989 49.7346,55.5365 50.208,55.6646 L 50.7567,55.0481 C 49.7946,53.8743 50.276,53.8807 50.7224,53.5314 C 50.7225,53.5313 50.4103,51.947 51.0614,52.3043 L 51.3924,51.2029 C 50.9835,50.5565 51.0417,50.6536 51.5695,49.8961 C 51.7867,49.4587 51.8816,50.4657 52.4067,50.4443 L 53.4232,50.2906 C 53.7798,49.9454 53.3963,50.3055 54.2582,50.2992 L 55.4018,50.8015 C 55.298,50.0951 53.7323,49.18 56.963,49.132 C 57.4314,49.8068 58.6201,49.6256 58.5057,49.9766 C 58.8611,49.7247 59.3446,49.0129 59.8864,48.95 L 60.8321,49.8354 L 61.7664,48.8918 C 63.2967,48.8167 62.9454,49.2849 63.5787,49.6794 C 63.3164,49.1908 64.0457,49.4581 64.9884,48.9695 L 65.816,49.7026 L 66.9607,49.3515 C 67.2998,49.1902 67.1122,48.4656 67.2835,48.2995 C 67.6607,47.9338 68.192,48.1704 68.6975,48.2085 L 69.8955,48.037 L 70.7231,48.8466 C 71.7466,48.2743 71.4656,48.289 72.5583,47.6818 C 73.1385,47.8533 73.4547,48.3381 73.5889,48.2896 C 74.5641,47.9371 75.0766,47.7741 74.6228,49.2438 L 75.5359,49.9819 C 75.8464,49.1872 76.2256,52.0207 76.7976,52.1185 C 77.5533,52.6525 77.4838,53.1272 76.4317,53.5394 L 77.9933,54.0702 L 79.8358,52.8132 C 80.8776,53.1881 81.0519,54.348 79.8505,55.2341 C 80.2475,54.8422 80.4267,54.37 81.6636,54.2861 C 81.2359,54.6541 81.3566,54.8769 81.621,55.0618 C 82.4823,54.3625 83.6666,53.078 85.0265,54.2861 L 86.5944,54.8895 C 85.9303,55.1262 85.0225,54.767 84.6306,55.6652 L 86.8862,55.4064 C 88.8617,55.1218 87.4007,55.8079 87.6535,56.0099 L 89.4619,55.1477 C 89.9207,55.45 89.3376,55.8919 88.5952,56.3545 C 90.443,55.7997 91.4667,55.7795 91.9723,56.0957 L 93.2198,56.6991 L 91.2845,56.9579 L 92.5415,57.389 L 93.5021,57.389 L 95.1268,56.9579 C 95.9577,58.1338 94.2383,58.1704 92.8097,58.337 C 94.728,58.5826 95.2534,58.9619 93.7039,59.5439 C 92.653,60.4282 93.6427,58.8748 91.1509,59.3716 L 90.8213,59.5439 L 92.0641,60.2338 C 92.2454,60.9079 91.284,60.8883 90.2699,60.8372 L 91.0419,61.3541 C 91.4267,61.5921 87.8341,61.8503 89.8598,62.4745 L 91.6492,61.9576 L 92.0821,62.8198 C 92.5122,62.1968 92.5392,61.0518 94.0648,61.6994 L 95.0348,61.5271 L 95.1665,62.044 C 96.9818,61.0556 97.6123,61.3926 97.7242,62.1305 L 96.7069,63.165 C 97.9816,62.5875 98.7994,62.8873 99.7638,62.9062 C 99.47,63.3638 98.967,63.5823 98.1345,63.4232 L 99.2267,63.9401 L 97.9365,64.1125 C 98.406,64.6105 97.9508,64.9828 97.2299,65.3193 L 98.6708,65.3193 L 99.3443,64.7159 C 100.801,64.2134 100.3178,64.815 100.6108,64.9747 L 101.0579,65.5781 L 103.1533,65.3193 L 102.8,65.9227 C 104.1946,65.2265 105.6325,64.9797 105.3388,66.3538 L 104.3546,66.7849 L 105.4279,67.6471 L 103.9538,68.2505 L 103.1866,67.6471 L 102.4941,68.5952 L 101.4114,67.9053 L 101.0439,68.7675 L 102.7813,69.1986 L 104.3965,68.9398 L 104.9895,69.802 C 106.3306,69.9743 106.8358,70.3145 105.5635,71.0089 C 104.9867,71.6016 104.1797,71.1004 103.3506,70.4919 C 102.224,70.8656 102.6546,71.2392 102.9689,71.6129 L 102.0273,71.2682 C 102.8041,71.9828 101.89,71.8237 101.0431,71.6993 L 102.2954,72.2163 C 102.2847,72.4808 103.0589,73.0848 101.6267,72.7333 L 100.1905,72.6474 L 101.1179,73.2508 L 100.308,73.4231 C 102.2204,73.0343 104.1157,72.8128 102.5019,74.2853 L 102.6147,75.1476 L 101.6494,75.234 L 100.5572,74.7171 L 101.7858,75.6651 L 101.2724,76.2685 L 100.1708,75.9239 L 100.4294,77.0443 C 98.8332,77.952 98.5049,75.3428 96.7453,75.7464 C 96.7932,76.0582 97.1394,76.7852 97.4144,77.5251 C 96.7243,77.9903 95.5477,77.1795 94.6542,75.9216 C 94.066,75.5209 93.4631,74.187 92.9237,75.9455 L 91.8923,75.2717 C 90.7086,75.3765 94.7019,77.4358 93.9053,78.2814 L 92.0089,77.8543 L 93.0727,79.8026 C 92.4408,80.2482 91.5807,80.1346 90.6666,79.8891 L 91.5608,81.0959 L 89.6339,81.1824 C 90.5289,82.0389 89.8692,82.2346 88.3059,82.0446 L 87.4271,81.4441 C 87.3067,81.9042 87.7002,82.4581 86.7448,82.6317 L 84.9617,82.6623 C 84.536,83.2058 84.1081,83.5116 83.4889,83.4448 C 82.3837,83.6392 82.5496,82.9002 82.1384,82.2242 C 81.4445,83.216 79.5375,82.6902 80.0231,81.7209 L 79.6398,81.1413 C 79.2276,81.5452 79.0239,81.6951 78.196,81.5581 L 76.8895,80.5983 L 76.1742,80.8118 L 76.0026,80.0886 C 75.6005,80.5733 76.0122,80.1103 75.1078,79.7057 C 74.8584,79.4051 73.763,79.1259 74.7367,78.5509 L 72.5996,78.7008 L 71.4737,77.6346 C 69.4114,78.5253 69.7157,78.8182 68.7708,77.516 C 66.9618,77.7173 66.5837,76.8125 66.5966,76.2943 C 66.4084,77.3882 65.3364,77.0589 64.9637,77.0169 C 64.3726,76.8946 64.2485,76.3249 64.089,75.9797 L 62.3186,77.0118 C 62.0319,76.9078 60.6939,76.4959 61.061,76.0124 C 60.5624,76.3306 59.4667,78.3405 59.0112,77.8684 L 59.0112,77.8684 z"
   class="fil4 str1"
   id="path4587"
   style="fill:#008f4c;stroke:#000000;stroke-width:0.25;stroke-linejoin:round" />

    <path
   d="M 41.7115,69.3384 C 39.4398,68.5863 41.2476,71.1453 40.8149,72.0465 C 40.461,72.7834 41.624,73.9075 41.9507,72.8869"
   class="fil5 str1"
   id="path4275"
   style="fill:none;stroke:#000000;stroke-width:0.25;stroke-linejoin:round" />

    <path
   d="M 45.6582,65.1458 C 45.3473,65.7932 47.4036,64.9936 46.0459,66.761 C 45.7765,67.1117 46.0625,67.938 45.8521,68.3762 C 45.5436,69.0186 45.7605,69.1838 46.1106,69.1838"
   class="fil5 str1"
   id="path4277"
   style="fill:none;stroke:#000000;stroke-width:0.25;stroke-linejoin:round" />

    <path
   d="M 50.8239,66.756 C 50.7542,66.9012 51.0232,66.9428 51.1227,67.0361 C 51.5384,67.4258 51.019,68.7417 51.3618,69.2772 C 51.6186,69.6783 53.5059,70.7589 52.916,69.8375"
   class="fil5 str1"
   id="path4279"
   style="fill:none;stroke:#000000;stroke-width:0.25;stroke-linejoin:round" />

    <path
   d="M 50.725,67.6187 C 50.9706,68.0024 50.7862,66.5356 50.8543,66.0035 C 51.1417,63.759 50.2779,63.6816 49.4327,63.6816"
   class="fil5 str1"
   id="path4281"
   style="fill:none;stroke:#000000;stroke-width:0.25;stroke-linejoin:round" />

    <path
   d="M 51.1643,61.1354 C 51.2284,60.6341 53.6872,61.6363 52.5214,63.4574 C 52.05,64.1939 52.9076,64.2673 52.3276,65.1736 C 51.7605,66.0595 52.6147,68.0282 53.2969,67.4955"
   class="fil5 str1"
   id="path4283"
   style="fill:none;stroke:#000000;stroke-width:0.25;stroke-linejoin:round" />

    <path
   d="M 54.4421,66.1771 C 54.3441,66.33 52.4386,64.2254 54.1189,62.0381 C 54.3683,61.7135 53.2607,60.4608 53.1496,60.3219"
   class="fil5 str1"
   id="path4285"
   style="fill:none;stroke:#000000;stroke-width:0.25;stroke-linejoin:round" />

    <path
   nodetypes="csss"
   d="M 55.5863,62.4395 C 56.2085,61.6293 57.6829,64.2153 56.8141,66.4775 C 56.6704,66.8518 56.2568,68.8373 56.3618,69.0012 C 59.0225,73.1575 58.3629,69.3557 59.2052,69.9098"
   class="fil5 str1"
   id="path4287"
   style="fill:none;stroke:#000000;stroke-width:0.25;stroke-linejoin:round" />

    <path
   d="M 59.441,67.1068 C 60.1813,68.2632 58.1673,64.5095 57.5669,63.1697 C 57.2661,62.4986 58.3327,62.2235 58.0839,61.2516"
   class="fil5 str1"
   id="path4289"
   style="fill:none;stroke:#000000;stroke-width:0.25;stroke-linejoin:round" />

    <path
   d="M 58.3505,57.2208 C 57.8695,56.1471 59.8153,58.4996 60.5477,59.1388 C 61.1196,59.638 59.8316,61.3486 60.2246,62.1674 C 60.3073,62.3396 60.4465,62.2367 60.5477,62.2683"
   class="fil5 str1"
   id="path4291"
   style="fill:none;stroke:#000000;stroke-width:0.25;stroke-linejoin:round" />

    <path
   d="M 61.6463,67.013 C 61.9393,67.6233 60.8753,65.994 60.677,65.2968 C 60.3331,64.0881 61.1112,60.2935 61.711,62.1674"
   class="fil5 str1"
   id="path4293"
   style="fill:none;stroke:#000000;stroke-width:0.25;stroke-linejoin:round" />

    <path
   d="M 62.1633,58.836 C 62.0797,58.5421 65.2265,61.0569 63.4558,61.0569 C 63.2194,61.0569 62.4805,61.2312 63.0681,61.4606"
   class="fil5 str1"
   id="path4295"
   style="fill:none;stroke:#000000;stroke-width:0.25;stroke-linejoin:round" />

    <path
   d="M 64.619,64.7921 C 64.4216,64.7921 63.853,61.4608 64.942,61.4608 C 65.204,61.4608 65.4943,62.1735 65.5883,62.3693"
   class="fil5 str1"
   id="path4297"
   style="fill:none;stroke:#000000;stroke-width:0.25;stroke-linejoin:round" />

    <path
   d="M 64.1021,58.0285 C 64.953,58.0285 67.8379,60.0338 67.5271,57.1199"
   class="fil5 str1"
   id="path4299"
   style="fill:none;stroke:#000000;stroke-width:0.25;stroke-linejoin:round" />

    <path
   d="M 68.2379,60.0474 C 67.9088,56.9626 69.4579,64.3439 70.8228,63.2779 C 70.9521,63.177 71.0813,63.0759 71.2106,62.975 C 71.4778,62.7663 71.4177,62.4908 71.7276,62.975"
   class="fil5 str1"
   id="path4301"
   style="fill:none;stroke:#000000;stroke-width:0.25;stroke-linejoin:round" />

    <path
   d="M 69.6085,49.5865 C 70.4696,48.914 70.2623,52.1995 69.673,53.1198 C 68.888,54.3462 70.09,54.9056 68.2514,54.3312"
   class="fil5 str1"
   id="path4303"
   style="fill:none;stroke:#000000;stroke-width:0.25;stroke-linejoin:round" />

    <path
   nodetypes="cssc"
   d="M 70.2547,50.9997 C 69.8524,51.6283 70.24,53.1977 70.6425,53.8263 C 70.7862,54.0508 70.9872,54.1628 71.1595,54.3311 C 71.2653,54.4344 71.6717,54.1641 71.8058,54.1291"
   class="fil5 str1"
   id="path4305"
   style="fill:none;stroke:#000000;stroke-width:0.25;stroke-linejoin:round" />

    <path
   nodetypes="cssc"
   d="M 72.0641,51.8073 C 73.1728,52.8898 74.1967,52.5805 74.1967,54.9368 C 74.1967,55.4497 76.2634,54.9348 74.3905,52.0091 C 74.142,51.6208 74.7895,52.6324 74.5843,52.312"
   class="fil5 str1"
   id="path4307"
   style="fill:none;stroke:#000000;stroke-width:0.25;stroke-linejoin:round" />

    <path
   nodetypes="cssc"
   d="M 79.1081,55.0377 C 78.0773,53.4274 79.3205,56.878 79.9481,57.6625 C 81.256,59.2969 77.6866,59.9863 77.4278,57.1577 C 77.357,56.3841 78.0921,56.1118 77.3632,55.5425"
   class="fil5 str1"
   id="path4309"
   style="fill:none;stroke:#000000;stroke-width:0.25;stroke-linejoin:round" />

    <path
   nodetypes="csssc"
   d="M 81.8222,56.9558 C 81.7631,56.309 82.3362,58.1531 82.4685,58.773 C 82.9132,60.857 84.7068,62.1733 82.8563,63.6186 C 82.7329,63.715 82.6408,63.8878 82.5332,64.0224 C 82.5163,64.0434 82.4901,64.0224 82.4686,64.0224"
   class="fil5 str1"
   id="path4311"
   style="fill:none;stroke:#000000;stroke-width:0.25;stroke-linejoin:round" />

    <path
   d="M 82.4685,59.1767 C 81.0214,60.9851 83.8174,62.609 80.5298,62.609 C 78.1905,62.609 81.6603,63.7195 78.4619,63.7195 C 78.3543,63.7195 78.2465,63.7195 78.1389,63.7195 C 78.0907,63.7195 78.0527,63.7869 78.0096,63.8204"
   class="fil5 str1"
   id="path4313"
   style="fill:none;stroke:#000000;stroke-width:0.25;stroke-linejoin:round" />

    <path
   d="M 80.7236,65.5366 C 80.2027,65.5366 81.762,65.694 82.2745,65.8395 C 83.4715,66.1794 84.3829,67.9853 84.7949,64.1233 C 84.814,63.9445 84.8811,63.7867 84.9242,63.6185 C 85.1143,62.8758 87.0458,62.7435 83.7609,60.6908"
   class="fil5 str1"
   id="path4315"
   style="fill:none;stroke:#000000;stroke-width:0.25;stroke-linejoin:round" />

    <path
   d="M 85.9911,64.5533 C 85.8662,64.4753 86.6174,64.9958 86.9604,66.0676 C 87.4404,67.5673 85.9477,67.3212 85.5388,67.4809 C 85.3051,67.5722 85.386,68.2245 85.2157,68.4904"
   class="fil5 str1"
   id="path4317"
   style="fill:none;stroke:#000000;stroke-width:0.25;stroke-linejoin:round" />

    <path
   d="M 83.4742,69.3123 C 83.4341,69.328 85.2703,69.2233 84.849,68.5652 C 84.7579,68.4228 84.5849,66.8754 84.5502,66.6042"
   class="fil5 str1"
   id="path4319"
   style="fill:none;stroke:#000000;stroke-width:0.25;stroke-linejoin:round" />

    <path
   d="M 66.6223,63.7827 C 66.234,63.176 67.3039,65.1424 67.7209,65.7007 C 69.5313,68.1248 70.2979,65.937 68.1732,68.4264 C 67.7832,68.8832 67.9739,69.4295 68.2378,69.7387"
   class="fil5 str1"
   id="path4321"
   style="fill:none;stroke:#000000;stroke-width:0.25;stroke-linejoin:round" />

    <path
   d="M 71.4466,65.9156 C 70.3695,67.1775 70.9457,68.7136 71.9846,69.9308"
   class="fil5 str1"
   id="path4323"
   style="fill:none;stroke:#000000;stroke-width:0.25;stroke-linejoin:round" />

    <path
   d="M 69.7377,58.8739 C 69.4214,59.2445 70.4553,59.4118 70.7717,59.7824 C 71.9899,61.2095 71.3961,63.8472 71.9996,64.2243"
   class="fil5 str1"
   id="path4325"
   style="fill:none;stroke:#000000;stroke-width:0.25;stroke-linejoin:round" />

    <path
   d="M 72.1288,57.0567 C 72.6613,57.3895 71.4602,58.5031 72.7104,59.4796 C 73.7255,60.2724 73.3,60.5405 73.0981,61.8015"
   class="fil5 str1"
   id="path4327"
   style="fill:none;stroke:#000000;stroke-width:0.25;stroke-linejoin:round" />

    <path
   d="M 74.132,58.1673 C 74.4427,58.4099 74.1323,59.2787 74.2613,59.7824 C 74.5342,60.8486 75.1307,61.3792 75.2953,62.4072"
   class="fil5 str1"
   id="path4329"
   style="fill:none;stroke:#000000;stroke-width:0.25;stroke-linejoin:round" />

    <path
   d="M 76.5231,63.8204 C 76.5888,64.0768 77.9759,60.7283 76.0708,59.9842 C 75.5259,59.7715 77.2027,59.9727 77.751,59.7823"
   class="fil5 str1"
   id="path4331"
   style="fill:none;stroke:#000000;stroke-width:0.25;stroke-linejoin:round" />

    <path
   d="M 76.0708,62.4071 C 75.7904,62.2976 75.8433,61.5713 75.6831,61.1956 C 74.3511,58.0745 74.7405,58.6614 76.2646,58.0662 C 76.5622,57.95 76.5932,58.0998 76.6524,58.47"
   class="fil5 str1"
   id="path4333"
   style="fill:none;stroke:#000000;stroke-width:0.25;stroke-linejoin:round" />

    <path
   d="M 69.1722,72.2898 C 69.4265,72.1905 69.2519,73.0991 69.2917,73.5037 C 69.5072,75.6924 72.9674,76.5586 72.4598,73.7838 C 72.0603,71.5995 69.6085,73.597 71.3838,73.597"
   class="fil5 str1"
   id="path4335"
   style="fill:none;stroke:#000000;stroke-width:0.25;stroke-linejoin:round" />

    <path
   d="M 49.987,69.6508 C 49.8838,69.0866 49.172,71.2552 47.6557,71.5184 C 47.0367,71.6259 46.7213,71.5013 46.4601,71.7052"
   class="fil5 str1"
   id="path4337"
   style="fill:none;stroke:#000000;stroke-width:0.25;stroke-linejoin:round" />

    <path
   d="M 49.241,64.9021 C 48.8179,64.9755 48.5866,67.3395 49.3057,67.5268"
   class="fil5 str1"
   id="path4339"
   style="fill:none;stroke:#000000;stroke-width:0.25;stroke-linejoin:round" />

    <path
   d="M 47.7524,62.0665 C 47.1201,62.1762 49.0509,61.4481 49.4325,60.6531 C 49.865,59.7523 50.7166,59.287 51.3712,59.5426"
   class="fil5 str1"
   id="path4341"
   style="fill:none;stroke:#000000;stroke-width:0.25;stroke-linejoin:round" />

    <path
   d="M 52.5344,59.5427 C 53.2388,58.0755 53.3575,59.3888 52.6637,57.2208 C 52.6019,57.0281 52.4914,56.8843 52.4052,56.716"
   class="fil5 str1"
   id="path4343"
   style="fill:none;stroke:#000000;stroke-width:0.25;stroke-linejoin:round" />

    <path
   d="M 55.0548,55.5047 C 54.9786,55.2664 54.715,57.5162 56.0888,58.1295 C 56.3904,58.2641 56.692,58.3987 56.9936,58.5333 C 57.0972,58.5794 57.1229,58.8024 57.1874,58.937"
   class="fil5 str1"
   id="path4345"
   style="fill:none;stroke:#000000;stroke-width:0.25;stroke-linejoin:round" />

    <path
   d="M 73.1292,62.787 C 73.9903,62.1145 73.783,65.3999 73.1937,66.3203 C 72.4087,67.5467 73.6107,68.1061 71.7721,67.5317"
   class="fil5 str1"
   id="path4303_0"
   style="fill:none;stroke:#000000;stroke-width:0.25;stroke-linejoin:round" />

    <path
   nodetypes="cssc"
   d="M 74.9069,65.034 C 74.5046,65.6626 74.8922,67.232 75.2947,67.8606 C 75.4384,68.0851 75.6394,68.1971 75.8117,68.3654 C 75.9175,68.4687 76.3239,68.1984 76.458,68.1634"
   class="fil5 str1"
   id="path4305_1"
   style="fill:none;stroke:#000000;stroke-width:0.25;stroke-linejoin:round" />

    <path
   nodetypes="cssc"
   d="M 76.7163,65.8416 C 77.825,66.9241 78.8489,66.6148 78.8489,68.9711 C 78.8489,69.484 80.9156,68.9691 79.0427,66.0434 C 78.7942,65.6551 79.4417,66.6667 79.2365,66.3463"
   class="fil5 str1"
   id="path4307_2"
   style="fill:none;stroke:#000000;stroke-width:0.25;stroke-linejoin:round" />

    <path
   nodetypes="cssc"
   d="M 82.5251,68.4816 C 81.5716,66.9921 82.7216,70.1838 83.3022,70.9095 C 84.5119,72.4213 81.2102,73.0591 80.9708,70.4425 C 80.9054,69.727 81.5854,69.4752 80.9111,68.9485"
   class="fil5 str1"
   id="path4309_3"
   style="fill:none;stroke:#000000;stroke-width:0.25;stroke-linejoin:round" />

    <path
   nodetypes="csssc"
   d="M 84.519,70.2238 C 84.4644,69.6255 84.9944,71.3313 85.1168,71.9046 C 85.5282,73.8324 87.1872,75.0499 85.4755,76.3869 C 85.3614,76.476 85.2762,76.6358 85.1767,76.7603 C 85.1611,76.7798 85.1368,76.7603 85.117,76.7603"
   class="fil5 str1"
   id="path4311_4"
   style="fill:none;stroke:#000000;stroke-width:0.25;stroke-linejoin:round" />

    <path
   d="M 85.1168,72.2781 C 83.7783,73.9509 86.3646,75.453 83.3236,75.453 C 81.1597,75.453 84.3692,76.4802 81.4108,76.4802 C 81.3112,76.4802 81.2115,76.4802 81.1119,76.4802 C 81.0674,76.4802 81.0322,76.5425 80.9924,76.5735"
   class="fil5 str1"
   id="path4313_5"
   style="fill:none;stroke:#000000;stroke-width:0.25;stroke-linejoin:round" />

    <path
   d="M 83.5029,78.161 C 83.021,78.161 84.4633,78.3065 84.9374,78.4412 C 86.0446,78.7556 86.8876,80.426 87.2688,76.8537 C 87.2864,76.6883 87.3485,76.5424 87.3883,76.3867 C 87.5642,75.6998 89.3508,75.5773 86.3123,73.6787"
   class="fil5 str1"
   id="path4315_6"
   style="fill:none;stroke:#000000;stroke-width:0.25;stroke-linejoin:round" />

    <path
   d="M 88.9435,75.8168 C 88.8279,75.7447 89.5228,76.2261 89.8401,77.2175 C 90.2841,78.6047 88.9034,78.3772 88.5251,78.5249 C 88.309,78.6093 88.3837,79.2126 88.2263,79.4586"
   class="fil5 str1"
   id="path4317_7"
   style="fill:none;stroke:#000000;stroke-width:0.25;stroke-linejoin:round" />

    <path
   d="M 73.0744,70.3079 C 72.6832,70.5319 73.5312,71.0004 73.691,71.4219 C 74.306,73.0449 72.9653,75.1561 73.3729,75.6728"
   class="fil5 str1"
   id="path4325_8"
   style="fill:none;stroke:#000000;stroke-width:0.25;stroke-linejoin:round" />

    <path
   d="M 75.301,68.3544 C 75.7935,68.6622 74.6825,69.6922 75.8389,70.5955 C 76.7778,71.3288 76.3843,71.5769 76.1976,72.7432"
   class="fil5 str1"
   id="path4327_9"
   style="fill:none;stroke:#000000;stroke-width:0.25;stroke-linejoin:round" />

    <path
   d="M 77.4056,71.3444 C 77.693,71.5688 77.4059,72.3725 77.5252,72.8384 C 77.7777,73.8246 78.3294,74.3154 78.4817,75.2663"
   class="fil5 str1"
   id="path4329_10"
   style="fill:none;stroke:#000000;stroke-width:0.25;stroke-linejoin:round" />

    <path
   d="M 80.5274,75.8176 C 80.5881,76.0548 81.8712,72.9574 80.109,72.2692 C 79.6049,72.0724 81.1559,72.2585 81.6631,72.0824"
   class="fil5 str1"
   id="path4331_11"
   style="fill:none;stroke:#000000;stroke-width:0.25;stroke-linejoin:round" />

    <path
   d="M 79.1111,73.3 C 78.8518,73.1988 78.9007,72.527 78.7524,72.1795 C 77.5204,69.2924 77.8806,69.8353 79.2904,69.2847 C 79.5656,69.1773 79.5943,69.3158 79.6491,69.6582"
   class="fil5 str1"
   id="path4333_12"
   style="fill:none;stroke:#000000;stroke-width:0.25;stroke-linejoin:round" />

    <path
   d="M 87.7681,59.8254 C 88.6293,59.1529 88.422,62.4384 87.8327,63.3587 C 87.0476,64.5851 88.2496,65.1445 86.4111,64.5701"
   class="fil5 str1"
   id="path4303_13"
   style="fill:none;stroke:#000000;stroke-width:0.25;stroke-linejoin:round" />

    <path
   nodetypes="cssc"
   d="M 88.4144,61.2386 C 88.0121,61.8672 88.3997,63.4366 88.8022,64.0652 C 88.9459,64.2897 89.1468,64.4017 89.3192,64.57 C 89.425,64.6733 89.8314,64.403 89.9654,64.368"
   class="fil5 str1"
   id="path4305_14"
   style="fill:none;stroke:#000000;stroke-width:0.25;stroke-linejoin:round" />

    <path
   nodetypes="cssc"
   d="M 91.8824,64.9771 C 92.9911,66.0596 94.015,65.7503 94.015,68.1066 C 94.015,68.6195 96.0817,68.1046 94.2088,65.179 C 93.9603,64.7906 94.6078,65.8022 94.4026,65.4818"
   class="fil5 str1"
   id="path4307_15"
   style="fill:none;stroke:#000000;stroke-width:0.25;stroke-linejoin:round" />

    <path
   nodetypes="cssc"
   d="M 96.988,64.9176 C 95.9572,63.3073 97.2005,66.7579 97.8281,67.5424 C 99.1359,69.1768 95.5665,69.8663 95.3078,67.0376 C 95.237,66.264 95.9721,65.9918 95.2432,65.4224"
   class="fil5 str1"
   id="path4309_16"
   style="fill:none;stroke:#000000;stroke-width:0.25;stroke-linejoin:round" />

    <path
   nodetypes="csssc"
   d="M 83.8363,56.3393 C 83.3038,55.9673 85.0827,56.7187 85.6418,57.0173 C 87.5213,58.0215 89.6839,57.4997 89.5951,59.8461 C 89.5892,60.0026 89.6618,60.1844 89.6953,60.3534 C 89.7005,60.3799 89.6675,60.3863 89.6536,60.4028"
   class="fil5 str1"
   id="path4311_17"
   style="fill:none;stroke:#000000;stroke-width:0.25;stroke-linejoin:round" />

    <path
   d="M 99.2178,68.8018 C 98.1355,70.8494 101.1864,71.9203 97.9571,72.5367 C 95.6592,72.9753 99.2757,73.4155 96.134,74.0152 C 96.0283,74.0354 95.9224,74.0556 95.8167,74.0758 C 95.7694,74.0848 95.7447,74.1581 95.7087,74.1991"
   class="fil5 str1"
   id="path4313_18"
   style="fill:none;stroke:#000000;stroke-width:0.25;stroke-linejoin:round" />

    <path
   d="M 86.8819,69.2585 C 86.5893,69.6014 87.5456,69.7561 87.8384,70.0989 C 88.9652,71.419 88.4159,73.8589 88.9741,74.2077"
   class="fil5 str1"
   id="path4325_19"
   style="fill:none;stroke:#000000;stroke-width:0.25;stroke-linejoin:round" />

    <path
   d="M 87.8101,66.4959 C 88.3026,66.8037 87.1916,67.8338 88.348,68.7371 C 89.287,69.4704 88.8934,69.7184 88.7067,70.8848"
   class="fil5 str1"
   id="path4327_20"
   style="fill:none;stroke:#000000;stroke-width:0.25;stroke-linejoin:round" />

    <path
   d="M 90.0212,68.5082 C 90.3086,68.7326 90.0215,69.5363 90.1408,70.0022 C 90.3932,70.9884 90.945,71.4792 91.0972,72.4301"
   class="fil5 str1"
   id="path4329_21"
   style="fill:none;stroke:#000000;stroke-width:0.25;stroke-linejoin:round" />

    <path
   d="M 93.1584,73.8341 C 93.2192,74.0712 94.5022,70.9739 92.74,70.2856 C 92.236,70.0888 93.787,70.275 94.2942,70.0988"
   class="fil5 str1"
   id="path4331_22"
   style="fill:none;stroke:#000000;stroke-width:0.25;stroke-linejoin:round" />

    <path
   d="M 92.4324,72.535 C 92.173,72.4338 92.2219,71.762 92.0737,71.4145 C 90.8416,68.5274 91.2019,69.0703 92.6116,68.5197 C 92.8868,68.4123 92.9155,68.5508 92.9703,68.8932"
   class="fil5 str1"
   id="path4333_23"
   style="fill:none;stroke:#000000;stroke-width:0.25;stroke-linejoin:round" />

    <path
   d="M 49.8899,71.6892 C 49.6024,72.288 51.5044,71.5483 50.2486,73.1832 C 49.9993,73.5076 50.2639,74.2719 50.0693,74.6772 C 49.784,75.2715 49.9845,75.4243 50.3084,75.4243"
   class="fil5 str1"
   id="path4277_24"
   style="fill:none;stroke:#000000;stroke-width:0.25;stroke-linejoin:round" />

    <path
   d="M 52.8955,75.9519 C 52.8258,76.0971 53.0947,76.1387 53.1943,76.232 C 53.61,76.6217 53.0906,77.9376 53.4334,78.4731 C 53.6902,78.8742 55.5774,79.9548 54.9875,79.0334"
   class="fil5 str1"
   id="path4279_25"
   style="fill:none;stroke:#000000;stroke-width:0.25;stroke-linejoin:round" />

    <path
   d="M 54.5692,77.0724 C 54.7963,77.4273 54.6258,76.0705 54.6887,75.5784 C 54.9546,73.5021 54.1556,73.4306 53.3737,73.4306"
   class="fil5 str1"
   id="path4281_26"
   style="fill:none;stroke:#000000;stroke-width:0.25;stroke-linejoin:round" />

    <path
   d="M 54.2105,71.283 C 54.2698,70.8193 56.5441,71.7463 55.4658,73.4307 C 55.0297,74.112 55.823,74.1799 55.2865,75.0182 C 54.7619,75.8377 55.5521,77.6588 56.1831,77.166"
   class="fil5 str1"
   id="path4283_27"
   style="fill:none;stroke:#000000;stroke-width:0.25;stroke-linejoin:round" />

    <path
   d="M 57.6776,76.6056 C 57.5869,76.747 55.8243,74.8003 57.3786,72.777 C 57.6093,72.4767 56.5848,71.318 56.482,71.1895"
   class="fil5 str1"
   id="path4285_28"
   style="fill:none;stroke:#000000;stroke-width:0.25;stroke-linejoin:round" />

    <path
   d="M 52.0586,78.8467 C 51.9554,78.2825 51.2436,80.4511 49.7272,80.7143 C 49.1083,80.8218 48.7928,80.6972 48.5316,80.9011"
   class="fil5 str1"
   id="path4337_29"
   style="fill:none;stroke:#000000;stroke-width:0.25;stroke-linejoin:round" />

    <path
   d="M 50.9825,75.2982 C 50.5911,75.3661 50.3772,77.5528 51.0424,77.7261"
   class="fil5 str1"
   id="path4339_30"
   style="fill:none;stroke:#000000;stroke-width:0.25;stroke-linejoin:round" />

    <path
   d="M 51.8194,71.9366 C 51.2346,72.0381 53.0206,71.3646 53.3736,70.6292 C 53.7737,69.7959 54.5614,69.3656 55.1668,69.602"
   class="fil5 str1"
   id="path4341_31"
   style="fill:none;stroke:#000000;stroke-width:0.25;stroke-linejoin:round" />

    <path
   d="M 56.2428,69.6021 C 56.8944,68.2449 57.0042,69.4597 56.3624,67.4544 C 56.3053,67.2761 56.203,67.1431 56.1233,66.9874"
   class="fil5 str1"
   id="path4343_32"
   style="fill:none;stroke:#000000;stroke-width:0.25;stroke-linejoin:round" />

    <path
   d="M 37.3047,76.417 C 36.5869,76.4408 38.247,77.894 36.0521,77.5079 C 35.6165,77.4312 35.0162,78.067 34.5304,78.0832 C 33.8181,78.1069 33.772,78.3755 33.9339,78.686"
   class="fil5 str1"
   id="path4277_33"
   style="fill:none;stroke:#000000;stroke-width:0.25;stroke-linejoin:round" />

    <path
   d="M 44.485,76.8866 C 44.4152,77.0319 44.6842,77.0734 44.7838,77.1668 C 45.1995,77.5565 44.6801,78.8724 45.0229,79.4079 C 45.2797,79.809 47.1669,80.8896 46.577,79.9682"
   class="fil5 str1"
   id="path4279_34"
   style="fill:none;stroke:#000000;stroke-width:0.25;stroke-linejoin:round" />

    <path
   d="M 46.0692,73.8646 C 46.2912,73.5064 45.1411,74.2462 44.6701,74.402 C 42.6826,75.0589 42.9632,75.8104 43.3008,76.5156"
   class="fil5 str1"
   id="path4281_35"
   style="fill:none;stroke:#000000;stroke-width:0.25;stroke-linejoin:round" />

    <path
   d="M 45.8,72.2178 C 45.8593,71.7541 48.1336,72.6811 47.0553,74.3655 C 46.6192,75.0468 47.4125,75.1147 46.876,75.953 C 46.3514,76.7725 47.1416,78.5936 47.7726,78.1008"
   class="fil5 str1"
   id="path4283_36"
   style="fill:none;stroke:#000000;stroke-width:0.25;stroke-linejoin:round" />

    <path
   d="M 49.267,77.5404 C 49.1764,77.6817 47.4138,75.7351 48.9681,73.7118 C 49.1988,73.4115 48.1743,72.2528 48.0715,72.1243"
   class="fil5 str1"
   id="path4285_37"
   style="fill:none;stroke:#000000;stroke-width:0.25;stroke-linejoin:round" />

    <path
   d="M 41.5009,79.2417 C 41.3894,78.6317 40.6199,80.9761 38.9806,81.2607 C 38.3114,81.3769 37.9704,81.2422 37.688,81.4627"
   class="fil5 str1"
   id="path4337_38"
   style="fill:none;stroke:#000000;stroke-width:0.25;stroke-linejoin:round" />

    <path
   d="M 41.5254,75.4618 C 41.134,75.5297 40.9201,77.7164 41.5852,77.8897"
   class="fil5 str1"
   id="path4339_39"
   style="fill:none;stroke:#000000;stroke-width:0.25;stroke-linejoin:round" />

    <path
   d="M 43.4089,72.8714 C 42.8241,72.9729 44.6101,72.2994 44.9631,71.564 C 45.3631,70.7307 46.1509,70.3004 46.7563,70.5368"
   class="fil5 str1"
   id="path4341_40"
   style="fill:none;stroke:#000000;stroke-width:0.25;stroke-linejoin:round" />

    <path
   d="M 47.8323,70.5369 C 48.4839,69.1797 48.5937,70.3945 47.9519,68.3892 C 47.8948,68.2109 47.7925,68.0779 47.7128,67.9222"
   class="fil5 str1"
   id="path4343_41"
   style="fill:none;stroke:#000000;stroke-width:0.25;stroke-linejoin:round" />

    <path
   d="M 35.4628,66.3252 C 35.152,66.9726 37.2082,66.1729 35.8506,67.9404 C 35.5811,68.2911 35.8671,69.1174 35.6568,69.5555 C 35.3483,70.198 35.5651,70.3632 35.9153,70.3632"
   class="fil5 str1"
   id="path4277_42"
   style="fill:none;stroke:#000000;stroke-width:0.25;stroke-linejoin:round" />

    <path
   d="M 43.0427,67.8006 C 42.973,67.9458 43.242,67.9874 43.3416,68.0807 C 43.7572,68.4704 43.2378,69.7863 43.5807,70.3218 C 43.8374,70.7229 45.7247,71.8035 45.1348,70.8821"
   class="fil5 str1"
   id="path4279_43"
   style="fill:none;stroke:#000000;stroke-width:0.25;stroke-linejoin:round" />

    <path
   d="M 42.7582,69.1231 C 43.0038,69.5068 42.8194,68.0399 42.8874,67.5079 C 43.1748,65.2633 42.3111,65.186 41.4658,65.186"
   class="fil5 str1"
   id="path4281_44"
   style="fill:none;stroke:#000000;stroke-width:0.25;stroke-linejoin:round" />

    <path
   d="M 41.9252,62.4892 C 41.9893,61.9879 44.4481,62.99 43.2823,64.8111 C 42.8109,65.5476 43.6685,65.621 43.0885,66.5273 C 42.5213,67.4133 43.3756,69.3819 44.0578,68.8492"
   class="fil5 str1"
   id="path4283_45"
   style="fill:none;stroke:#000000;stroke-width:0.25;stroke-linejoin:round" />

    <path
   d="M 46.7308,67.402 C 46.6329,67.5549 44.7273,65.4503 46.4076,63.263 C 46.657,62.9384 45.5495,61.6857 45.4383,61.5468"
   class="fil5 str1"
   id="path4285_46"
   style="fill:none;stroke:#000000;stroke-width:0.25;stroke-linejoin:round" />

    <path
   d="M 37.3135,70.7002 C 37.2019,70.0902 36.4324,72.4346 34.7931,72.7192 C 34.124,72.8354 33.7829,72.7007 33.5006,72.9212"
   class="fil5 str1"
   id="path4337_47"
   style="fill:none;stroke:#000000;stroke-width:0.25;stroke-linejoin:round" />

    <path
   d="M 38.4355,66.83 C 38.0124,66.9034 37.7811,69.2674 38.5002,69.4548"
   class="fil5 str1"
   id="path4339_48"
   style="fill:none;stroke:#000000;stroke-width:0.25;stroke-linejoin:round" />

    <path
   d="M 39.3403,63.1958 C 38.708,63.3055 40.6388,62.5774 41.0204,61.7824 C 41.4529,60.8816 42.3045,60.4163 42.9591,60.6719"
   class="fil5 str1"
   id="path4341_49"
   style="fill:none;stroke:#000000;stroke-width:0.25;stroke-linejoin:round" />

    <path
   d="M 44.1223,60.672 C 44.8267,59.2048 44.9454,60.5181 44.2516,58.3501 C 44.1898,58.1574 44.0793,58.0136 43.9931,57.8453"
   class="fil5 str1"
   id="path4343_50"
   style="fill:none;stroke:#000000;stroke-width:0.25;stroke-linejoin:round" />

    <path
   d="M 57.9944,71.2952 C 57.7069,71.894 59.6089,71.1543 58.3531,72.7892 C 58.1039,73.1136 58.3684,73.8779 58.1738,74.2832 C 57.8885,74.8775 58.0891,75.0303 58.4129,75.0303"
   class="fil5 str1"
   id="path4277_51"
   style="fill:none;stroke:#000000;stroke-width:0.25;stroke-linejoin:round" />

    <path
   d="M 62.6571,72.4157 C 62.5874,72.561 62.8563,72.6025 62.9559,72.6959 C 63.3716,73.0856 62.8522,74.4015 63.195,74.937 C 63.4518,75.3381 65.339,76.4187 64.7492,75.4972"
   class="fil5 str1"
   id="path4279_52"
   style="fill:none;stroke:#000000;stroke-width:0.25;stroke-linejoin:round" />

    <path
   d="M 63.4976,72.923 C 63.7248,73.2779 63.5542,71.9211 63.6172,71.429 C 63.883,69.3528 63.084,69.2812 62.3022,69.2812"
   class="fil5 str1"
   id="path4281_53"
   style="fill:none;stroke:#000000;stroke-width:0.25;stroke-linejoin:round" />

    <path
   d="M 63.9413,68.5413 C 64.0007,68.0776 66.275,69.0046 65.1966,70.6891 C 64.7606,71.3703 65.5539,71.4382 65.0174,72.2766 C 64.4928,73.0961 65.283,74.9171 65.914,74.4243"
   class="fil5 str1"
   id="path4283_54"
   style="fill:none;stroke:#000000;stroke-width:0.25;stroke-linejoin:round" />

    <path
   d="M 67.7781,73.5119 C 67.6875,73.6532 65.9249,71.7065 67.4791,69.6833 C 67.7098,69.383 66.6853,68.2243 66.5825,68.0958"
   class="fil5 str1"
   id="path4285_55"
   style="fill:none;stroke:#000000;stroke-width:0.25;stroke-linejoin:round" />

    <path
   d="M 61.8202,75.3106 C 61.717,74.7464 61.0052,76.9149 59.4888,77.1782 C 58.8699,77.2857 58.5544,77.1611 58.2933,77.365"
   class="fil5 str1"
   id="path4337_56"
   style="fill:none;stroke:#000000;stroke-width:0.25;stroke-linejoin:round" />

    <path
   d="M 60.7441,71.7621 C 60.3528,71.83 60.1388,74.0167 60.804,74.19"
   class="fil5 str1"
   id="path4339_57"
   style="fill:none;stroke:#000000;stroke-width:0.25;stroke-linejoin:round" />

    <path
   d="M 61.5811,68.4004 C 60.9962,68.502 62.7822,67.8285 63.1352,67.0931 C 63.5353,66.2598 64.323,65.8295 64.9284,66.0659"
   class="fil5 str1"
   id="path4341_58"
   style="fill:none;stroke:#000000;stroke-width:0.25;stroke-linejoin:round" />

    <path
   d="M 65.3271,65.6614 C 66.0315,64.1941 66.1502,65.5074 65.4564,63.3395 C 65.3946,63.1468 65.284,63.0029 65.1979,62.8347"
   class="fil5 str1"
   id="path4343_59"
   style="fill:none;stroke:#000000;stroke-width:0.25;stroke-linejoin:round" />

    <path
   d="M 62.2694,51.6544 C 61.9585,52.3018 64.0148,51.5021 62.6572,53.2695 C 62.3877,53.6202 62.6737,54.4466 62.4633,54.8847 C 62.1549,55.5272 62.3717,55.6924 62.7218,55.6924"
   class="fil5 str1"
   id="path4277_60"
   style="fill:none;stroke:#000000;stroke-width:0.25;stroke-linejoin:round" />

    <path
   d="M 67.43,51.4729 C 67.0068,51.5463 66.7756,53.9103 67.4947,54.0977"
   class="fil5 str1"
   id="path4339_61"
   style="fill:none;stroke:#000000;stroke-width:0.25;stroke-linejoin:round" />

    <path
   d="M 60.1696,55.9286 C 60.4152,56.3122 60.2308,54.8454 60.2989,54.3134 C 60.5863,52.0688 59.7225,51.9915 58.8772,51.9915"
   class="fil5 str1"
   id="path4281_62"
   style="fill:none;stroke:#000000;stroke-width:0.25;stroke-linejoin:round" />

    <path
   d="M 65.6905,55.3054 C 65.5925,55.4583 63.687,53.3537 65.3673,51.1664 C 65.6166,50.8418 64.5091,49.5891 64.3979,49.4502"
   class="fil5 str1"
   id="path4285_63"
   style="fill:none;stroke:#000000;stroke-width:0.25;stroke-linejoin:round" />

    <path
   d="M 52.5721,52.0128 C 52.2612,52.6602 54.3175,51.8605 52.9598,53.628 C 52.6904,53.9787 52.9764,54.805 52.766,55.2431 C 52.4575,55.8856 52.6744,56.0508 53.0245,56.0508"
   class="fil5 str1"
   id="path4277_64"
   style="fill:none;stroke:#000000;stroke-width:0.25;stroke-linejoin:round" />

    <path
   d="M 59.3366,52.9908 C 58.9134,53.0642 58.6822,55.4282 59.4013,55.6156"
   class="fil5 str1"
   id="path4339_65"
   style="fill:none;stroke:#000000;stroke-width:0.25;stroke-linejoin:round" />

    <path
   d="M 46.9735,60.9901 C 47.2191,61.3737 47.0347,59.9069 47.1027,59.3749 C 47.3902,57.1303 46.5264,57.053 45.6811,57.053"
   class="fil5 str1"
   id="path4281_66"
   style="fill:none;stroke:#000000;stroke-width:0.25;stroke-linejoin:round" />

    <path
   d="M 57.9983,56.34 C 57.9003,56.4929 55.9948,54.3883 57.6751,52.201 C 57.9245,51.8764 56.8169,50.6237 56.7058,50.4848"
   class="fil5 str1"
   id="path4285_67"
   style="fill:none;stroke:#000000;stroke-width:0.25;stroke-linejoin:round" />

    <path
   d="M 54.4828,54.3095 C 55.1871,52.8422 55.3059,54.1555 54.612,51.9875 C 54.5503,51.7949 54.4397,51.651 54.3535,51.4827"
   class="fil5 str1"
   id="path4343_68"
   style="fill:none;stroke:#000000;stroke-width:0.25;stroke-linejoin:round" />

    <path
   d="M 79.8091,79.4235 C 80.0532,80.0412 80.8023,78.1429 81.1492,80.175 C 81.218,80.5783 81.9586,80.9033 82.1239,81.3214 C 82.3662,81.9345 82.6146,81.8911 82.8346,81.6534"
   class="fil5 str1"
   id="path4277_69"
   style="fill:none;stroke:#000000;stroke-width:0.25;stroke-linejoin:round" />

    <path
   d="M 81.8947,76.838 C 81.6787,77.1714 83.1382,78.8137 83.7172,78.4432"
   class="fil5 str1"
   id="path4339_70"
   style="fill:none;stroke:#000000;stroke-width:0.25;stroke-linejoin:round" />

    <path
   d="M 82.9981,78.9573 C 83.0403,79.1198 80.4144,79.0911 79.9852,76.5761 C 79.9216,76.2029 78.3753,76.1677 78.2111,76.1559"
   class="fil5 str1"
   id="path4285_71"
   style="fill:none;stroke:#000000;stroke-width:0.25;stroke-linejoin:round" />

    <path
   d="M 77.084,77.4109 C 76.5305,76.0109 77.4966,76.7554 75.5889,75.8643 C 75.4193,75.7852 75.2522,75.7698 75.0838,75.7226"
   class="fil5 str1"
   id="path4343_72"
   style="fill:none;stroke:#000000;stroke-width:0.25;stroke-linejoin:round" />

   </g>

  </g>

 </g>
    <g
       id="texto">
  <metadata
   id="CorelCorpID_3Corel-Layer" />

  <path
   id="path144"
   d="M 33.3998,13.178 L 33.3998,12.1133 L 37.25,12.107 L 37.25,15.4788 C 36.6595,15.9508 36.0499,16.3043 35.4212,16.5435 C 34.7926,16.7806 34.147,16.8991 33.4866,16.8991 C 32.5934,16.8991 31.7806,16.7086 31.0524,16.3255 C 30.3222,15.9445 29.7719,15.3899 29.3993,14.6681 C 29.0268,13.9442 28.8405,13.1357 28.8405,12.2424 C 28.8405,11.3577 29.0268,10.5322 29.3972,9.7659 C 29.7655,8.9976 30.2989,8.4282 30.9932,8.0557 C 31.6874,7.6853 32.4875,7.499 33.3935,7.499 C 34.0496,7.499 34.6444,7.6048 35.1757,7.8186 C 35.707,8.0303 36.124,8.3266 36.4245,8.7076 C 36.7272,9.0886 36.9558,9.5839 37.1146,10.1956 L 36.0287,10.4941 C 35.8911,10.0305 35.7218,9.6665 35.5207,9.4019 C 35.3175,9.1373 35.0275,8.9256 34.6508,8.7669 C 34.2761,8.6081 33.857,8.5277 33.3998,8.5277 C 32.8495,8.5277 32.3732,8.6124 31.9732,8.7796 C 31.571,8.9468 31.2493,9.1669 31.0016,9.44 C 30.7561,9.713 30.5656,10.0115 30.428,10.3396 C 30.1973,10.9005 30.0809,11.5101 30.0809,12.1684 C 30.0809,12.979 30.2206,13.6564 30.5,14.2025 C 30.7794,14.7486 31.1858,15.1529 31.7192,15.4174 C 32.2526,15.682 32.8177,15.8154 33.4168,15.8154 C 33.9396,15.8154 34.4476,15.7138 34.9429,15.5127 C 35.4403,15.3137 35.8149,15.0999 36.0711,14.8713 L 36.0711,13.178 L 33.3998,13.178 L 33.3998,13.178 z"
   class="fil6"
   style="fill:#000000;fill-rule:nonzero" />

  <path
   d="M 40.1719,16.7446 L 43.6645,7.6535 L 44.9599,7.6535 L 48.681,16.7446 L 47.3094,16.7446 L 46.2489,13.9908 L 42.4474,13.9908 L 41.4504,16.7446 L 40.1719,16.7446 L 40.1719,16.7446 z M 42.7945,13.0108 L 45.8785,13.0108 L 44.9281,10.4941 C 44.6402,9.73 44.4243,9.1013 44.2846,8.6081 C 44.1682,9.1923 44.0052,9.7702 43.7936,10.3459 L 42.7945,13.0108 L 42.7945,13.0108 z"
   class="fil6"
   id="1"
   style="fill:#000000;fill-rule:nonzero" />

  <path
   d="M 51.8082,16.7446 L 51.8082,7.6535 L 55.8383,7.6535 C 56.649,7.6535 57.2649,7.7361 57.6862,7.899 C 58.1074,8.062 58.4439,8.3499 58.6979,8.7626 C 58.9498,9.1775 59.0747,9.6347 59.0747,10.1342 C 59.0747,10.7798 58.8673,11.3217 58.4482,11.7641 C 58.0312,12.2065 57.3856,12.488 56.5135,12.6086 C 56.8331,12.761 57.0744,12.9113 57.2395,13.0616 C 57.5909,13.3833 57.9232,13.7876 58.2386,14.2702 L 59.8198,16.7446 L 58.3063,16.7446 L 57.1041,14.8523 C 56.7527,14.3083 56.4627,13.8892 56.2341,13.6013 C 56.0076,13.3114 55.8044,13.1082 55.6245,12.9939 C 55.4446,12.8774 55.2626,12.797 55.0763,12.7504 C 54.9387,12.7229 54.7165,12.7081 54.4053,12.7081 L 53.0104,12.7081 L 53.0104,16.7446 L 51.8082,16.7446 L 51.8082,16.7446 z M 53.0104,11.6667 L 55.597,11.6667 C 56.1452,11.6667 56.577,11.6096 56.8861,11.4953 C 57.1972,11.381 57.4322,11.1989 57.593,10.9492 C 57.7539,10.6994 57.8343,10.4285 57.8343,10.1342 C 57.8343,9.7046 57.6798,9.3511 57.3665,9.0738 C 57.0554,8.7965 56.5622,8.6589 55.887,8.6589 L 53.0104,8.6589 L 53.0104,11.6667 L 53.0104,11.6667 z"
   class="fil6"
   id="12"
   style="fill:#000000;fill-rule:nonzero" />

  <path
   d="M 62.1087,16.7446 L 65.6013,7.6535 L 66.8967,7.6535 L 70.6178,16.7446 L 69.2462,16.7446 L 68.1857,13.9908 L 64.3842,13.9908 L 63.3872,16.7446 L 62.1087,16.7446 L 62.1087,16.7446 z M 64.7313,13.0108 L 67.8153,13.0108 L 66.8649,10.4941 C 66.577,9.73 66.3611,9.1013 66.2214,8.6081 C 66.105,9.1923 65.942,9.7702 65.7304,10.3459 L 64.7313,13.0108 L 64.7313,13.0108 z"
   class="fil6"
   id="123"
   style="fill:#000000;fill-rule:nonzero" />

  <path
   d="M 77.9804,13.178 L 77.9804,12.1133 L 81.8306,12.107 L 81.8306,15.4788 C 81.2401,15.9508 80.6305,16.3043 80.0018,16.5435 C 79.3732,16.7806 78.7276,16.8991 78.0672,16.8991 C 77.174,16.8991 76.3612,16.7086 75.633,16.3255 C 74.9028,15.9445 74.3525,15.3899 73.9799,14.6681 C 73.6074,13.9442 73.4211,13.1357 73.4211,12.2424 C 73.4211,11.3577 73.6074,10.5322 73.9778,9.7659 C 74.3461,8.9976 74.8795,8.4282 75.5738,8.0557 C 76.268,7.6853 77.0681,7.499 77.9741,7.499 C 78.6302,7.499 79.225,7.6048 79.7563,7.8186 C 80.2876,8.0303 80.7046,8.3266 81.0051,8.7076 C 81.3078,9.0886 81.5364,9.5839 81.6952,10.1956 L 80.6093,10.4941 C 80.4717,10.0305 80.3024,9.6665 80.1013,9.4019 C 79.8981,9.1373 79.6081,8.9256 79.2314,8.7669 C 78.8567,8.6081 78.4376,8.5277 77.9804,8.5277 C 77.4301,8.5277 76.9538,8.6124 76.5538,8.7796 C 76.1516,8.9468 75.8299,9.1669 75.5822,9.44 C 75.3367,9.713 75.1462,10.0115 75.0086,10.3396 C 74.7779,10.9005 74.6615,11.5101 74.6615,12.1684 C 74.6615,12.979 74.8012,13.6564 75.0806,14.2025 C 75.36,14.7486 75.7664,15.1529 76.2998,15.4174 C 76.8332,15.682 77.3983,15.8154 77.9974,15.8154 C 78.5202,15.8154 79.0282,15.7138 79.5235,15.5127 C 80.0209,15.3137 80.3955,15.0999 80.6517,14.8713 L 80.6517,13.178 L 77.9804,13.178 L 77.9804,13.178 z"
   class="fil6"
   id="1234"
   style="fill:#000000;fill-rule:nonzero" />

  <path
   d="M 85.3854,12.3165 C 85.3854,10.8073 85.7897,9.6262 86.6004,8.7732 C 87.4111,7.9202 88.4567,7.4926 89.7394,7.4926 C 90.5776,7.4926 91.3354,7.6937 92.0085,8.0938 C 92.6816,8.4959 93.1959,9.0547 93.5494,9.7723 C 93.9029,10.4877 94.0786,11.3026 94.0786,12.2107 C 94.0786,13.1336 93.8944,13.9591 93.5219,14.6851 C 93.1494,15.4132 92.6223,15.9635 91.9408,16.3382 C 91.2571,16.7128 90.5226,16.8991 89.7331,16.8991 C 88.8758,16.8991 88.1117,16.6938 87.4386,16.2789 C 86.7634,15.8662 86.2533,15.301 85.9061,14.5856 C 85.559,13.8723 85.3854,13.1145 85.3854,12.3165 L 85.3854,12.3165 z M 86.6258,12.3356 C 86.6258,13.432 86.92,14.2935 87.5085,14.9243 C 88.099,15.555 88.8377,15.8704 89.7267,15.8704 C 90.6327,15.8704 91.3777,15.5529 91.9619,14.9158 C 92.5461,14.2787 92.8403,13.3749 92.8403,12.2043 C 92.8403,11.4656 92.7133,10.82 92.4636,10.2676 C 92.2138,9.7151 91.8476,9.2876 91.3671,8.9828 C 90.8845,8.6801 90.3448,8.5277 89.7458,8.5277 C 88.8928,8.5277 88.1604,8.8198 87.5466,9.4061 C 86.9327,9.9903 86.6258,10.9682 86.6258,12.3356 L 86.6258,12.3356 z"
   class="fil6"
   id="12345"
   style="fill:#000000;fill-rule:nonzero" />

  <path
   d="M 96.7782,16.7446 L 100.2708,7.6535 L 101.5662,7.6535 L 105.2873,16.7446 L 103.9157,16.7446 L 102.8552,13.9908 L 99.0537,13.9908 L 98.0567,16.7446 L 96.7782,16.7446 L 96.7782,16.7446 z M 99.4008,13.0108 L 102.4848,13.0108 L 101.5344,10.4941 C 101.2465,9.73 101.0306,9.1013 100.8909,8.6081 C 100.7745,9.1923 100.6115,9.7702 100.3999,10.3459 L 99.4008,13.0108 L 99.4008,13.0108 z"
   class="fil6"
   id="123456"
   style="fill:#000000;fill-rule:nonzero" />

  <path
   id="path152"
   d="M 10.9851,46.8915 L 11.0846,48.026 C 10.6295,48.079 10.257,48.2038 9.9649,48.4007 C 9.6728,48.5975 9.4378,48.9023 9.2579,49.3151 C 9.078,49.7278 8.9891,50.1935 8.9891,50.71 C 8.9891,51.1693 9.0568,51.5736 9.1923,51.9249 C 9.3299,52.2763 9.5161,52.5388 9.7532,52.7102 C 9.9924,52.8817 10.2506,52.9685 10.5321,52.9685 C 10.8179,52.9685 11.0655,52.8859 11.2793,52.7187 C 11.4931,52.5536 11.6709,52.2805 11.8148,51.9017 C 11.9101,51.6561 12.0583,51.1185 12.2593,50.2824 C 12.4604,49.4484 12.6488,48.8621 12.8266,48.5277 C 13.0531,48.0938 13.3367,47.7699 13.6733,47.5561 C 14.0098,47.3445 14.3866,47.2386 14.8057,47.2386 C 15.2629,47.2386 15.6926,47.3678 16.0905,47.6281 C 16.4906,47.8885 16.7932,48.2695 17.0007,48.769 C 17.206,49.2706 17.3097,49.8252 17.3097,50.4369 C 17.3097,51.1121 17.2018,51.7048 16.9837,52.2213 C 16.7678,52.7356 16.4482,53.1314 16.027,53.4087 C 15.6058,53.6839 15.1274,53.8342 14.594,53.8553 L 14.5072,52.7018 C 15.0809,52.6383 15.5169,52.4287 15.809,52.071 C 16.1032,51.7133 16.2493,51.1862 16.2493,50.4877 C 16.2493,49.7596 16.1159,49.2304 15.8492,48.896 C 15.5825,48.5637 15.2608,48.3965 14.8861,48.3965 C 14.558,48.3965 14.2892,48.515 14.0797,48.7499 C 13.868,48.9828 13.6521,49.586 13.432,50.5639 C 13.2097,51.5418 13.0171,52.2128 12.852,52.5769 C 12.6065,53.106 12.2974,53.4976 11.9249,53.7495 C 11.5503,54.0014 11.1185,54.1263 10.6316,54.1263 C 10.1469,54.1263 9.6918,53.9887 9.2643,53.7114 C 8.8367,53.4341 8.5044,53.0362 8.2652,52.5176 C 8.0281,51.999 7.9096,51.4148 7.9096,50.7671 C 7.9096,49.9437 8.0281,49.2537 8.2694,48.6991 C 8.5086,48.1425 8.8684,47.7064 9.351,47.3889 C 9.8315,47.0735 10.3776,46.9063 10.9851,46.8915 L 10.9851,46.8915 z"
   class="fil6"
   style="fill:#000000;fill-rule:nonzero" />

  <path
   d="M 17.1552,61.7357 L 17.1552,62.9401 L 11.9016,62.9401 C 10.9893,62.9401 10.2633,62.8364 9.7257,62.6289 C 9.1881,62.4215 8.752,62.049 8.4155,61.5092 C 8.0768,60.9695 7.9096,60.2625 7.9096,59.3862 C 7.9096,58.5353 8.0556,57.8368 8.3499,57.297 C 8.642,56.7552 9.0674,56.3678 9.6241,56.1371 C 10.1808,55.9043 10.9385,55.79 11.9016,55.79 L 17.1552,55.79 L 17.1552,56.9922 L 11.908,56.9922 C 11.1185,56.9922 10.5364,57.0663 10.1638,57.2124 C 9.7892,57.3584 9.5013,57.6124 9.2981,57.968 C 9.0949,58.3257 8.9933,58.7639 8.9933,59.2804 C 8.9933,60.1651 9.1944,60.7959 9.5966,61.1727 C 9.9966,61.5473 10.7671,61.7357 11.908,61.7357 L 17.1552,61.7357 z"
   class="fil6"
   id="path154"
   style="fill:#000000;fill-rule:nonzero" />

  <polygon
   points="8.0641,64.8916 17.1552,64.8916 17.1552,66.096 9.1373,66.096 9.1373,70.5728 8.0641,70.5728 8.0641,64.8916 "
   class="fil6"
   id="polygon156"
   style="fill:#000000;fill-rule:nonzero" />

  <polygon
   points="8.0641,73.3773 16.082,73.3773 16.082,70.3823 17.1552,70.3823 17.1552,77.5874 16.082,77.5874 16.082,74.5796 8.0641,74.5796 8.0641,73.3773 "
   class="fil6"
   id="polygon158"
   style="fill:#000000;fill-rule:nonzero" />

  <path
   d="M 8.0641,76.8804 L 17.1552,80.373 L 17.1552,81.6684 L 8.0641,85.3895 L 8.0641,84.0179 L 10.8179,82.9574 L 10.8179,79.1559 L 8.0641,78.1589 L 8.0641,76.8804 z M 11.7979,79.503 L 11.7979,82.587 L 14.3146,81.6366 C 15.0787,81.3487 15.7074,81.1328 16.2006,80.9931 C 15.6164,80.8767 15.0385,80.7137 14.4628,80.5021 L 11.7979,79.503 L 11.7979,79.503 z"
   class="fil6"
   id="path160"
   style="fill:#000000;fill-rule:nonzero" />

  <polygon
   points="8.0641,86.3377 17.1552,86.3377 17.1552,87.5717 10.0178,92.3469 17.1552,92.3469 17.1552,93.5005 8.0641,93.5005 8.0641,92.2665 15.2079,87.4913 8.0641,87.4913 8.0641,86.3377 "
   class="fil6"
   id="polygon162"
   style="fill:#000000;fill-rule:nonzero" />

  <path
   d="M 8.0641,94.5228 L 17.1552,98.0154 L 17.1552,99.3108 L 8.0641,103.0319 L 8.0641,101.6603 L 10.8179,100.5998 L 10.8179,96.7983 L 8.0641,95.8013 L 8.0641,94.5228 z M 11.7979,97.1454 L 11.7979,100.2294 L 14.3146,99.279 C 15.0787,98.9911 15.7074,98.7752 16.2006,98.6355 C 15.6164,98.5191 15.0385,98.3561 14.4628,98.1445 L 11.7979,97.1454 L 11.7979,97.1454 z"
   class="fil6"
   id="path164"
   style="fill:#000000;fill-rule:nonzero" />

  <path
   id="path166"
   d="M 47.5683,144.087 L 44.0461,134.9959 L 45.35,134.9959 L 47.7122,141.5999 C 47.9027,142.1291 48.0615,142.6265 48.1885,143.0879 C 48.3303,142.5926 48.4933,142.0973 48.6795,141.5999 L 51.1349,134.9959 L 52.3625,134.9959 L 48.8023,144.087 L 47.5683,144.087 z"
   class="fil6"
   style="fill:#000000;fill-rule:nonzero" />

  <path
   d="M 53.7015,144.087 L 57.1941,134.9959 L 58.4895,134.9959 L 62.2106,144.087 L 60.839,144.087 L 59.7785,141.3332 L 55.977,141.3332 L 54.98,144.087 L 53.7015,144.087 L 53.7015,144.087 z M 56.3241,140.3532 L 59.4081,140.3532 L 58.4577,137.8365 C 58.1698,137.0724 57.9539,136.4437 57.8142,135.9505 C 57.6978,136.5347 57.5348,137.1126 57.3232,137.6883 L 56.3241,140.3532 z"
   class="fil6"
   id="path168"
   style="fill:#000000;fill-rule:nonzero" />

  <polygon
   points="65.3212,144.087 65.3212,134.996 66.5256,134.996 66.5256,143.014 71.0024,143.014 71.0024,144.087 65.3212,144.087 "
   class="fil6"
   id="polygon170"
   style="fill:#000000;fill-rule:nonzero" />

  <polygon
   points="74.585,144.087 74.585,134.996 75.7894,134.996 75.7894,143.014 80.2662,143.014 80.2662,144.087 74.585,144.087 "
   class="fil6"
   id="polygon172"
   style="fill:#000000;fill-rule:nonzero" />

  <polygon
   points="83.925,144.087 83.925,134.996 90.4973,134.996 90.4973,136.069 85.1273,136.069 85.1273,138.852 90.1565,138.852 90.1565,139.919 85.1273,139.919 85.1273,143.014 90.7089,143.014 90.7089,144.087 83.925,144.087 "
   class="fil6"
   id="polygon174"
   style="fill:#000000;fill-rule:nonzero" />

  <polygon
   id="polygon176"
   points="126.908,100.594 118.89,100.594 118.89,103.589 117.817,103.589 117.817,96.3842 118.89,96.3842 118.89,99.392 126.908,99.392 126.908,100.594 "
   class="fil6"
   style="fill:#000000;fill-rule:nonzero" />

  <polygon
   points="126.908,91.3908 117.817,91.3908 117.817,84.8185 118.89,84.8185 118.89,90.1885 121.673,90.1885 121.673,85.1593 122.74,85.1593 122.74,90.1885 125.834,90.1885 125.834,84.6069 126.908,84.6069 126.908,91.3908 "
   class="fil6"
   id="polygon178"
   style="fill:#000000;fill-rule:nonzero" />

  <polygon
   points="126.908,79.224 117.817,79.224 117.817,77.99 124.954,73.2148 117.817,73.2148 117.817,72.0612 126.908,72.0612 126.908,73.2952 119.764,78.0704 126.908,78.0704 126.908,79.224 "
   class="fil6"
   id="polygon180"
   style="fill:#000000;fill-rule:nonzero" />

  <path
   d="M 126.908,67.0318 L 125.7925,67.0318 L 119.9696,62.3751 C 119.5547,62.0428 119.1949,61.7295 118.8901,61.4311 L 118.8901,66.5047 L 117.8169,66.5047 L 117.8169,59.9939 L 118.8901,59.9939 L 125.1956,65.0972 L 125.8348,65.6496 L 125.8348,59.8436 L 126.908,59.8436 L 126.908,67.0318 z"
   class="fil6"
   id="path182"
   style="fill:#000000;fill-rule:nonzero" />

  <path
   d="M 126.908,55.8133 L 117.8169,52.3207 L 117.8169,51.0253 L 126.908,47.3042 L 126.908,48.6758 L 124.1542,49.7363 L 124.1542,53.5378 L 126.908,54.5348 L 126.908,55.8133 L 126.908,55.8133 z M 123.1742,53.1907 L 123.1742,50.1067 L 120.6575,51.0571 C 119.8934,51.345 119.2647,51.5609 118.7715,51.7006 C 119.3557,51.817 119.9336,51.98 120.5093,52.1916 L 123.1742,53.1907 z"
   class="fil6"
   id="path184"
   style="fill:#000000;fill-rule:nonzero" />

  <path
   id="path186"
   d="M 7.7017,122.888 L 16.7711,122.2935 L 16.9767,125.4162 C 17.0214,126.121 17.0137,126.6629 16.9514,127.0395 C 16.8653,127.5664 16.6778,128.0252 16.389,128.4118 C 16.0172,128.9167 15.5231,129.3092 14.9106,129.5869 C 14.296,129.8647 13.5865,130.0302 12.7778,130.083 C 12.0897,130.1299 11.4739,130.0881 10.9302,129.9618 C 10.3888,129.8376 9.9341,129.6586 9.5706,129.4312 C 9.2051,129.2017 8.9136,128.9449 8.6921,128.6585 C 8.4727,128.3722 8.2979,128.0224 8.1678,127.6051 C 8.0376,127.1899 7.9542,126.7071 7.9175,126.1588 L 7.7017,122.888 L 7.7017,122.888 z M 8.8524,124.017 L 8.9786,125.9541 C 9.0172,126.5511 9.1049,127.0171 9.2374,127.3497 C 9.372,127.6823 9.5448,127.9431 9.7603,128.1321 C 10.0644,128.3974 10.4618,128.5954 10.9526,128.7215 C 11.4433,128.8497 12.0316,128.8894 12.7154,128.8446 C 13.6639,128.7836 14.3819,128.5802 14.8718,128.2343 C 15.3595,127.8906 15.676,127.4892 15.821,127.0323 C 15.9235,126.7024 15.9503,126.1818 15.9035,125.4684 L 15.7793,123.563 L 8.8524,124.017 z"
   class="fil6"
   style="fill:#000000;fill-rule:nonzero" />

  <polygon
   id="polygon188"
   points="11.1231,136.204 17.3444,129.581 22.1328,134.081 21.3972,134.863 17.4863,131.187 15.58,133.215 19.2438,136.658 18.5145,137.435 14.8508,133.992 12.7321,136.246 16.7984,140.067 16.0628,140.847 11.1231,136.204 "
   class="fil6"
   style="fill:#000000;fill-rule:nonzero" />

  <polygon
   id="polygon190"
   points="22.6019,143.681 23.3305,134.621 24.5288,134.717 23.8876,142.707 28.3486,143.067 28.2635,144.136 22.6019,143.681 "
   class="fil6"
   style="fill:#000000;fill-rule:nonzero" />

  <path
   id="path192"
   d="M 112.562,143.774 L 109.9051,135.0828 L 112.8998,134.167 C 113.5748,133.9591 114.1029,133.843 114.4841,133.8189 C 115.0178,133.7811 115.5062,133.8574 115.9489,134.0518 C 116.5268,134.2981 117.0209,134.6877 117.4331,135.2205 C 117.8434,135.7553 118.168,136.408 118.4046,137.1827 C 118.6063,137.8427 118.7089,138.4512 118.7104,139.01 C 118.7119,139.5667 118.6442,140.0487 118.5052,140.456 C 118.3661,140.8634 118.1832,141.2068 117.9543,141.4864 C 117.7275,141.7659 117.4247,142.0173 117.0502,142.2405 C 116.6758,142.4616 116.2254,142.6545 115.699,142.8151 L 112.562,143.774 z M 113.3996,142.397 L 115.2546,141.8289 C 115.8276,141.654 116.2611,141.4631 116.555,141.2561 C 116.8489,141.0491 117.0626,140.8203 117.1961,140.5674 C 117.3854,140.2113 117.4866,139.7804 117.4973,139.2725 C 117.5102,138.7667 117.4158,138.1837 117.2141,137.5279 C 116.9363,136.6195 116.5736,135.9666 116.1262,135.5689 C 115.6789,135.1713 115.215,134.9556 114.737,134.9196 C 114.3943,134.8955 113.8791,134.9884 113.1957,135.1983 L 111.3683,135.756 L 113.3996,142.397 L 113.3996,142.397 z"
   class="fil6"
   style="fill:#000000;fill-rule:nonzero" />

  <polygon
   id="polygon194"
   points="123.735,135.84 115.534,131.917 118.371,125.987 119.339,126.451 117.021,131.295 119.532,132.495 121.703,127.959 122.665,128.421 120.495,132.955 123.286,134.292 125.694,129.257 126.661,129.721 123.735,135.84 "
   class="fil6"
   style="fill:#000000;fill-rule:nonzero" />

 </g>
    <g
       id="contono">
  <metadata
   id="CorelCorpID_4Corel-Layer" />

  <path
   d="M 1.2543,1.3622 L 1.2543,138.9862 C 1.2543,145.5844 7.5056,150.8766 15.2968,150.8766 L 53.2437,150.8766 C 61.0357,150.8766 67.3488,156.1716 67.3488,162.7674 C 67.3488,156.1692 73.6618,150.8766 81.4538,150.8766 L 119.4008,150.8766 C 127.1927,150.8766 133.4432,145.5844 133.4432,138.9862 L 133.4432,1.3622 L 67.3479,1.3622 L 1.2543,1.3622 L 1.2543,1.3622 z"
   class="fil5 str2"
   id="CoA_Nr._8"
   style="fill:none;stroke:#000000;stroke-width:1.10000002;stroke-linecap:round;stroke-linejoin:round" />

 </g>
  </g>
</svg>
